<svg id="Layer_1" data-name="Layer 1" xmlns="http://www.w3.org/2000/svg" viewBox="0 0 160.08 160.08"><defs><style>.cls-1{fill:#062828;}</style></defs><title>top-arrow</title><path class="cls-1" d="M592.71,1021a79.79,79.79,0,0,0-28.16-56.28L563,963.38l-1.19-1-1.38-1c-.93-.69-1.88-1.36-2.84-2-1.57-1.08-3.18-2.08-4.84-3l-.14-.08-1.53-.85c-1.07-.58-2.15-1.14-3.25-1.67l-1.5-.71a79.55,79.55,0,0,0-26-6.94l-.25,0c-.63-.06-1.26-.12-1.89-.16l-.49,0-1.38-.08c-.46,0-.91,0-1.37-.06h-.22c-.62,0-1.23,0-1.85,0h-1.48a77.61,77.61,0,0,0-41.52,12.51c-.23.14-.45.29-.67.44l-1.46,1a79.93,79.93,0,0,0-34.77,61.28c-.05.23-.09.47-.14.7v7.66l.09.41a80,80,0,0,0,159.93-1l.06-.21v-6.89C592.8,1021.4,592.76,1021.18,592.71,1021Zm-79.82-64.69a68.78,68.78,0,0,1,68.7,69c0,37.9-31,68.67-69.06,68.61-37.9-.06-68.56-31-68.5-69.17C444.1,987,475,956.23,512.89,956.28Z" transform="translate(-432.77 -945.7)"/><path d="M521.33,999.25v4.11q0,31.22,0,62.42a18.7,18.7,0,0,1-.54,4.9,7.73,7.73,0,0,1-8.14,6.11,7.46,7.46,0,0,1-7.63-6.65,79.35,79.35,0,0,1-.67-11.43c-.07-18.38,0-36.76,0-55.14v-5.26c-1.64,1.41-2.66,2.18-3.56,3.08-7.95,7.92-15.88,15.88-23.84,23.8a25.14,25.14,0,0,1-3.77,3.23c-3.49,2.3-7.15,2-9.8-.61a8.3,8.3,0,0,1-1.07-9.88,18.84,18.84,0,0,1,2.92-3.52q20-20.05,40.08-40.07c5.83-5.81,9.81-5.82,15.64,0q20,19.86,39.81,39.8a18,18,0,0,1,2.45,2.93c2.2,3.49,1.76,8.11-.91,10.54-2.89,2.65-7,2.81-10.48.08a75.85,75.85,0,0,1-6.4-6q-10.17-10.12-20.32-20.29c-.87-.87-1.82-1.66-2.73-2.49Z" transform="translate(-432.77 -945.7)"/></svg>