<?xml version="1.0" encoding="utf-8"?>
<!-- Generator: Adobe Illustrator 22.1.0, SVG Export Plug-In . SVG Version: 6.00 Build 0)  -->
<svg version="1.1" xmlns="http://www.w3.org/2000/svg" xmlns:xlink="http://www.w3.org/1999/xlink" x="0px" y="0px"
	 viewBox="0 0 240 240" style="enable-background:new 0 0 240 240;" xml:space="preserve">
<style type="text/css">
	.st0{display:none;}
	.st1{display:inline;}
	.st2{fill:#FFFFFF;}
	.st3{display:inline;fill:#FFFFFF;}
</style>
<g id="Layer_1" class="st0">
	<g class="st1">
		<rect x="-769.5" y="-340.5" width="1245" height="877"/>
		<path class="st2" d="M475-340v876H-769v-876H475 M476-341H-770v878H476V-341L476-341z"/>
	</g>
	
		<image style="overflow:visible;" width="20" height="30" xlink:href="clipboard.png"  transform="matrix(7.6333 0 0 7.6333 -286 -103)">
	</image>
	<path class="st3" d="M-286-49.6c0,6,0,168,0,168c0,7.7,7.6,7.6,7.6,7.6l137.4,0c0,0,7.7,0,7.7-7.6c0-12,0-168,0-168
		c0-7-7.7-7.6-7.7-7.6c-8,0-22.9,0-22.9,0v-7.6c0-7.6-7.6-7.6-7.6-7.6c-7.6,0-7.6,0-7.6,0l0-15.3c0-7.6-7.6-15.3-15.3-15.2
		c-7,0-30.6,0-30.6,0c-7.5,0-15.3,7.6-15.2,15.2c0,0.8,0,15.3,0,15.3s-5.4,0-7.6,0c0,0-7.6,0-7.6,7.7c0,6.1,0,7.6,0,7.6
		c-7.6,0-17.2,0-22.9,0C-286-57.2-286-49.6-286-49.6z"/>
	<g id="Lines" class="st1">
		<rect x="-263.1" y="-4.2" width="107" height="7.7"/>
		<rect x="-263.1" y="11.1" width="107" height="7.7"/>
		<rect x="-263.1" y="26.3" width="107" height="7.7"/>
		<rect x="-263.1" y="41.6" width="107" height="7.7"/>
		<rect x="-263.1" y="56.8" width="107" height="7.7"/>
		<rect x="-263.1" y="72.1" width="107" height="7.7"/>
		<rect x="-263.1" y="87.3" width="76.3" height="7.7"/>
	</g>
	<g class="st1">
		<rect x="-263.1" y="-33" width="107" height="6.4"/>
		<rect x="-274.5" y="-45.8" transform="matrix(-1.836970e-16 1 -1 -1.836970e-16 -301.2915 217.3266)" width="30.5" height="7.7"/>
		<rect x="-175.3" y="-45.6" transform="matrix(-1.836970e-16 1 -1 -1.836970e-16 -201.8199 118.2287)" width="30.5" height="7.7"/>
	</g>
	<circle class="st1" cx="-209.7" cy="-78.4" r="9.3"/>
</g>
<g id="Black" class="st0">
	<g class="st1">
		<path d="M192,48H176l0,32.1H64V48C58,48,52,48,48,48c-8,0-8,7.9-8,7.9c0,8.4,0,8.4,0,176c0,8,7.9,8,8,8l143.9,0c0,0,8,0,8-8
			c0-7.3,0-7.3,0-176C200,48.7,192,48,192,48z M143.9,209.6H64v-8h79.9V209.6z M176,192.6H64v-8H176V192.6z M176,175.5H64v-8H176
			V175.5z M176,159.5H64v-8H176V159.5z M176,142.5H64v-8H176V142.5z M176,125.5H64v-8H176V125.5z M176,108.5H64v-8H176V108.5z"/>
		<path d="M72,73.4h96l0-25.4v-8c0-7.9-8-8-8-8c-8,0-8,0-8,0l0-16c0-8-7.9-16-16-16c-7.3,0-32.1,0-32.1,0c-7.9,0-16,8-16,16
			c0,0.8,0,16,0,16s-5.7,0-8,0c0,0-8,0-8,8c0,1,0,1.9,0,2.7c0,4.1,0,5.2,0,5.2V73.4z M120,16.1c5.4,0,9.7,4.4,9.7,9.7
			s-4.4,9.7-9.7,9.7c-5.4,0-9.7-4.4-9.7-9.7S114.6,16.1,120,16.1z"/>
	</g>
</g>
<g id="White">
	<g>
		<path class="st2" d="M192,48H176l0,32.1H64V48C58,48,52,48,48,48c-8,0-8,7.9-8,7.9c0,8.4,0,8.4,0,176c0,8,7.9,8,8,8l143.9,0
			c0,0,8,0,8-8c0-7.3,0-7.3,0-176C200,48.7,192,48,192,48z M143.9,209.6H64v-8h79.9V209.6z M176,192.6H64v-8H176V192.6z M176,175.5
			H64v-8H176V175.5z M176,159.5H64v-8H176V159.5z M176,142.5H64v-8H176V142.5z M176,125.5H64v-8H176V125.5z M176,108.5H64v-8H176
			V108.5z"/>
		<path class="st2" d="M72,73.4h96l0-25.4v-8c0-7.9-8-8-8-8c-8,0-8,0-8,0l0-16c0-8-7.9-16-16-16c-7.3,0-32.1,0-32.1,0
			c-7.9,0-16,8-16,16c0,0.8,0,16,0,16s-5.7,0-8,0c0,0-8,0-8,8c0,1,0,1.9,0,2.7c0,4.1,0,5.2,0,5.2V73.4z M120,16.1
			c5.4,0,9.7,4.4,9.7,9.7s-4.4,9.7-9.7,9.7c-5.4,0-9.7-4.4-9.7-9.7S114.6,16.1,120,16.1z"/>
	</g>
</g>
</svg>
