<?xml version="1.0" encoding="utf-8"?>
<!-- Generator: Adobe Illustrator 22.1.0, SVG Export Plug-In . SVG Version: 6.00 Build 0)  -->
<svg version="1.1" id="Layer_1" xmlns="http://www.w3.org/2000/svg" xmlns:xlink="http://www.w3.org/1999/xlink" x="0px" y="0px"
	 viewBox="0 0 240 240" style="enable-background:new 0 0 240 240;" xml:space="preserve">
<g>
	<path d="M120,0.4C53.9,0.4,0.4,53.9,0.4,120S53.9,239.6,120,239.6S239.6,186.1,239.6,120S186.1,0.4,120,0.4z M120,222.6
		c-56.7,0-102.7-45.9-102.7-102.6S63.2,17.4,120,17.4c56.7,0,102.6,45.9,102.6,102.6S176.7,222.6,120,222.6z"/>
	<path d="M184.9,115.4c-2.2,2.2-5.4,3.4-8.4,3.4c-3.1,0-6.1-1.2-8.5-3.6l-36.1-37v109.2c0,6.6-5.4,11.9-11.9,11.9
		s-11.9-5.4-11.9-11.9V78.2l-36.1,37c-4.6,4.8-12.2,4.8-16.9,0.1c-4.8-4.6-4.8-12.1-0.1-16.9l50.4-51.6c3.7-3.9,8.8-6.1,14-6.3h0.7
		h0.7c5.2,0.1,10.3,2.4,14,6.3l50.4,51.6C189.6,103.1,189.6,110.8,184.9,115.4L184.9,115.4z"/>
</g>
</svg>
