<?xml version="1.0" encoding="utf-8"?>
<!-- Generator: Adobe Illustrator 19.0.0, SVG Export Plug-In . SVG Version: 6.00 Build 0)  -->
<svg version="1.1" id="Layer_1" xmlns="http://www.w3.org/2000/svg" xmlns:xlink="http://www.w3.org/1999/xlink" x="0px" y="0px"
	 viewBox="-127 98 477 477" style="enable-background:new -127 98 477 477;" xml:space="preserve">
<style type="text/css">
	.st0{fill:#FFFFFF;}
</style>
<g>
	<path class="st0" d="M164.3,445.3l-45.7-150.7c-6.8-22.3-13.5-44.6-20.3-66.9c-0.2-0.8-0.8-1.1-1.5-1.1c-8.6,0-17.1,0-25.8,0v-0.1
		H45.2c-1.5,0-2.1,0.5-2.1,2.1c0,5.8,0,11.7,0,17.5c0,0.7-0.1,1.4-0.2,2c-1.8,6.3-3.7,12.5-5.6,18.8
		C19.4,326.8,1.5,386.5-16.3,446.2c-0.2,0.8-0.3,1.5-0.4,2.3c-0.2,1.1,0.5,1.6,1.4,1.7c0.9,0.2,1.8,0.2,2.7,0.2
		c10.4,0,20.9,0,31.3,0c5.6,0,6.9-1,8.5-6.3c4.6-16.5,9.1-33,13.6-49.5c0.4-1.3,0.9-1.7,2.2-1.7c19.4,0.1,38.8,0,58.2,0.1
		c2.3,0,1.8-0.2,2.5,1.8c5.3,17.7,10.7,35.3,16,53c0.7,2.3,1.3,2.7,3.7,2.7c12.3,0,24.8,0,37.1,0C164,450.4,165.3,448.6,164.3,445.3
		z M51.5,354.1c7-29.1,14-58,21-86.9h0.3c7.1,29,14.1,57.9,21.3,86.9H51.5z"/>
	<path class="st0" d="M230.6,287.2c0,27,0,53.9,0,80.9l0,0v80.6c0,1.7,0,1.7-1.8,1.7h-41.6c-1.7,0-1.7,0-1.7-1.7
		c0-25.2,0-50.4,0-75.6c0-28.4-0.1-56.7-0.1-85.1c0-0.4,0-0.7,0-1.1c-0.1-0.9,0.2-1.3,1.2-1.3c14.2,0,28.5,0,42.8,0
		C230.7,285.6,230.6,286.3,230.6,287.2z"/>
	<path class="st0" d="M224.8,261.4c-4.1,3.8-9.1,5.6-14.7,6.1c-5.7,0.5-11.1-0.6-15.8-3.9c-7.1-4.9-10.1-11.9-9.4-20.6
		c0.8-8.4,5-14.6,12.6-18.3c3.4-1.7,7.1-2.4,10.9-2.3c7.9,0.1,14.7,2.8,19.3,9.5C234,241.3,232.8,254.1,224.8,261.4z"/>
</g>
<path class="st0" d="M111.5,573c-63.2,0-122.6-24.6-167.2-69.3c-44.7-44.7-69.3-104.1-69.3-167.2c0-63.2,24.6-122.6,69.3-167.2
	S48.3,100,111.5,100c63.2,0,122.6,24.6,167.2,69.3c44.7,44.7,69.3,104.1,69.3,167.2c0,63.2-24.6,122.6-69.3,167.2
	S174.7,573,111.5,573z M111.5,106C-15.6,106-119,209.4-119,336.5C-119,463.6-15.6,567,111.5,567C238.6,567,342,463.6,342,336.5
	C342,209.4,238.6,106,111.5,106z"/>
</svg>
