<?xml version="1.0" encoding="utf-8"?>
<!-- Generator: Adobe Illustrator 19.0.0, SVG Export Plug-In . SVG Version: 6.00 Build 0)  -->
<svg version="1.1" id="Layer_1" xmlns="http://www.w3.org/2000/svg" xmlns:xlink="http://www.w3.org/1999/xlink" x="0px" y="0px"
	 viewBox="-177 268.7 257 256.3" style="enable-background:new -177 268.7 257 256.3;" xml:space="preserve">
<style type="text/css">
	.st0{fill:#FFFFFF;}
</style>
<g id="XMLID_58_">
	<path id="XMLID_64_" class="st0" d="M-9.4,439.9c-18,24.9-55.5,42.2-90.9,15.6c-33-31.6-24.4-71.4,4.5-94.7
		c-2.3,6.6-4.4,12.7-4.4,19.9c0,0.7,0,1.3,0,2c-1.2,30.7,21.7,57.8,52.4,62.7c4.4,0.9,8.9,1.5,13.6,1.5
		C-25.3,446.9-16.9,443.1-9.4,439.9z"/>
	<path id="XMLID_62_" class="st0" d="M39.8,415.7c-7.6,39.5-41.4,69.5-86.6,71.3c-17.8,0.7-36.2-5.2-51.9-15.4l0,0
		c-23.9-16.2-39.8-42.6-39.8-74.8c0-22.7,8.4-43.4,22.2-59.3c8.9-9.5,19.7-17.3,30.5-22.8c0.5-0.2,0.9-0.5,1.5-0.7
		c3.1-1.5,6.8-2.8,10.5-3.9l0,0c9.6-2.6,20.8-3.8,30.8-3.4c0.1,0,0.1,0,0.1,0c7.4,0.3,14.4,1.5,19.6,3.4c4.8,1.8,8.3,4.4,9.4,7.8
		c0.5,1.5,0.6,3.3,0.1,5c-4.5,17.3-47.7,8.9-81.7,32.8c-5.6,3.9-11.2,7.8-15.8,13.8c-35,46.9,1.8,82.1,6,86.2
		c28.5,27.9,75.7,21.5,99.2-15.4c1.8-2.8,3.3-5.9,4.7-9.1c16.6-37.7,9.4-64,22.6-73c2.1-1.5,4.1-2,6-1.6c3.1,0.5,5.9,3.1,8.1,7.3
		c2.1,4.1,3.8,9.6,4.6,16.4l0,0C41.8,392.7,42.2,403,39.8,415.7z"/>
</g>
<path class="st0" d="M-48.5,524.8c-34.2,0-66.4-13.3-90.5-37.5c-24.2-24.2-37.5-56.3-37.5-90.5c0-34.2,13.3-66.4,37.5-90.5
	c24.2-24.1,56.3-37.5,90.5-37.5s66.4,13.3,90.5,37.5c24.2,24.2,37.5,56.3,37.5,90.5c0,34.2-13.3,66.4-37.5,90.5
	S-14.3,524.8-48.5,524.8z M-48.5,272.1c-68.8,0-124.8,56-124.8,124.8s56,124.8,124.8,124.8s124.8-56,124.8-124.8
	S20.3,272.1-48.5,272.1z"/>
</svg>
