<?xml version="1.0" encoding="utf-8"?>
<!-- Generator: Adobe Illustrator 19.0.0, SVG Export Plug-In . SVG Version: 6.00 Build 0)  -->
<svg version="1.1" id="Layer_1" xmlns="http://www.w3.org/2000/svg" xmlns:xlink="http://www.w3.org/1999/xlink" x="0px" y="0px"
	 viewBox="-67 158 477 477" style="enable-background:new -67 158 477 477;" xml:space="preserve">
<style type="text/css">
	.st0{display:none;}
	.st1{display:inline;}
	.st2{fill:#FFFFFF;}
	.st3{display:none;fill:#FFFFFF;}
</style>
<g class="st0">
	<path class="st1" d="M224.3,505.3l-45.7-150.7c-6.8-22.3-13.5-44.6-20.3-66.9c-0.2-0.8-0.8-1.1-1.5-1.1c-8.6,0-17.1,0-25.8,0v-0.1
		h-25.8c-1.5,0-2.1,0.5-2.1,2.1c0,5.8,0,11.7,0,17.5c0,0.7-0.1,1.4-0.2,2c-1.8,6.3-3.7,12.5-5.6,18.8
		c-17.9,59.9-35.8,119.6-53.6,179.3c-0.2,0.8-0.3,1.5-0.4,2.3c-0.2,1.1,0.5,1.6,1.4,1.7c0.9,0.2,1.8,0.2,2.7,0.2
		c10.4,0,20.9,0,31.3,0c5.6,0,6.9-1,8.5-6.3c4.6-16.5,9.1-33,13.6-49.5c0.4-1.3,0.9-1.7,2.2-1.7c19.4,0.1,38.8,0,58.2,0.1
		c2.3,0,1.8-0.2,2.5,1.8c5.3,17.7,10.7,35.3,16,53c0.7,2.3,1.3,2.7,3.7,2.7c12.3,0,24.8,0,37.1,0C224,510.4,225.3,508.6,224.3,505.3
		z M111.5,414.1c7-29.1,14-58,21-86.9h0.3c7.1,29,14.1,57.9,21.3,86.9H111.5z"/>
	<path class="st1" d="M290.6,347.2c0,27,0,53.9,0,80.9l0,0v80.6c0,1.7,0,1.7-1.8,1.7h-41.6c-1.7,0-1.7,0-1.7-1.7
		c0-25.2,0-50.4,0-75.6c0-28.4-0.1-56.7-0.1-85.1c0-0.4,0-0.7,0-1.1c-0.1-0.9,0.2-1.3,1.2-1.3c14.2,0,28.5,0,42.8,0
		C290.7,345.6,290.6,346.3,290.6,347.2z"/>
	<path class="st1" d="M284.8,321.4c-4.1,3.8-9.1,5.6-14.7,6.1c-5.7,0.5-11.1-0.6-15.8-3.9c-7.1-4.9-10.1-11.9-9.4-20.6
		c0.8-8.4,5-14.6,12.6-18.3c3.4-1.7,7.1-2.4,10.9-2.3c7.9,0.1,14.7,2.8,19.3,9.5C294,301.3,292.8,314.1,284.8,321.4z"/>
</g>
<path class="st2" d="M171.5,633c-63.2,0-122.6-24.6-167.2-69.3C-40.4,519-65,459.6-65,396.5c0-63.2,24.6-122.6,69.3-167.2
	s104-69.3,167.2-69.3s122.6,24.6,167.2,69.3C383.4,274,408,333.4,408,396.5c0,63.2-24.6,122.6-69.3,167.2S234.7,633,171.5,633z
	 M171.5,166C44.4,166-59,269.4-59,396.5S44.4,627,171.5,627S402,523.6,402,396.5S298.6,166,171.5,166z"/>
<g>
	<path class="st3" d="M348.8,399.1c-16.1,16.3-28.4,32.5-44.6,48.8c-14.9,15-31.8,28-46.8,42.9c-5.2,5.2-8.7,5.2-13.9,0.1
		c-5.6-5.5-9.2-9.1-14.7-14.7c-5.5-5.6-5.5-9.1,0-14.6c20.5-20.5,64.9-63.3,66.5-64.5c-1.9-2.1-46-45.5-66.3-65.8
		c-5.9-5.9-5.8-8.8,0.2-14.8c5.7-5.7,9.4-9.4,15-15.1c4.2-4.2,8.5-4.3,12.6-0.1c30.2,30.2,90.9,91.1,92,92.4
		C348.8,395.5,348.8,397.3,348.8,399.1z"/>
	<path class="st2" d="M47.2,395.8c21.5,21.5,43,42,63.5,62.5c10,10,10,11.2,0.1,21.1c-4.5,4.5-7.9,8.1-12.5,12.5c-5.2,5-9,5-14,0
		C54.5,462,26.7,434.2-3.1,404.4c-5.2-5.2-5.3-8.8-0.1-13.9c29.9-29.9,58.8-58.8,88.7-88.7c4.9-4.9,8.7-4.9,13.6,0
		c5.8,5.7,9.7,9.5,15.4,15.4c4.9,5,4.8,8.7-0.1,13.6C94.2,350.9,49.4,394.1,47.2,395.8z"/>
	<path class="st2" d="M140.4,534.3c-5.5-1.8-12.6-3.6-19.2-6.5c-3.9-1.7-3.8-5.9-2.6-9.9c8.6-28.9,17.1-57.8,25.6-86.7
		c16.3-55.1,32.5-110.1,48.8-165.2c2-6.9,5.2-8.6,12.2-6.6c3.9,1.1,7.8,2.3,11.7,3.5c7.5,2.3,9.1,5.3,6.9,12.8
		c-13.3,45.2-26.7,90.5-40.1,135.7c-11.4,38.4-22.8,76.9-34.1,115.3C148.5,530.9,146.6,533.9,140.4,534.3z"/>
	<path class="st2" d="M295.8,395.8c-21.5,21.5-43,42-63.5,62.5c-10,10-10,11.2-0.1,21.1c4.5,4.5,7.9,8.1,12.5,12.5c5.2,5,9,5,14,0
		c29.8-29.8,57.7-57.6,87.4-87.4c5.2-5.2,5.3-8.8,0.1-13.9c-29.9-29.9-58.8-58.8-88.7-88.7c-4.9-4.9-8.7-4.9-13.6,0
		c-5.8,5.7-9.7,9.5-15.4,15.4c-4.9,5-4.8,8.7,0.1,13.6C248.8,350.9,293.6,394.1,295.8,395.8z"/>
</g>
</svg>
