<?xml version="1.0" encoding="utf-8"?>
<!-- Generator: Adobe Illustrator 19.2.0, SVG Export Plug-In . SVG Version: 6.00 Build 0)  -->
<svg version="1.1" id="Layer_1" xmlns="http://www.w3.org/2000/svg" xmlns:xlink="http://www.w3.org/1999/xlink" x="0px" y="0px"
	 viewBox="0 0 200 200" style="enable-background:new 0 0 200 200;" xml:space="preserve">
<style type="text/css">
	.st0{display:none;}
	.st1{display:inline;}
	.st2{fill:#FFFFFF;}
</style>
<title>vector2</title>
<g class="st0">
	
		<image style="display:inline;overflow:visible;opacity:0.25;" width="193" height="198" xlink:href="2947DD8D8FF3C199.png"  transform="matrix(1 0 0 1 3.5 1)">
	</image>
	<g class="st1">
		<g>
			<path class="st2" d="M174.9,80.9c-2.6-10.6-7.1-20.6-13.2-29.6c-7.8-11.5-18.8-20.6-31.6-25.9h31.4c1.3,6.9,8,11.5,14.9,10.2
				c6.9-1.3,11.5-8,10.2-14.9s-8-11.5-14.9-10.2c-5,1-9,4.8-10.1,9.8h-48v-11H86.1v9.9H37.8c-2.1-6.7-9.3-10.5-16-8.4
				s-10.5,9.3-8.4,16c2.1,6.7,9.3,10.5,16,8.4c4.2-1.3,7.4-4.6,8.5-8.8h29.6c-8.1,3.7-15.5,8.7-21.8,15
				C32.9,54.2,25.6,70.3,24.5,80.9H12.7v29.3h29.2V80.9H30.1c1.1-8.2,6.8-22.8,19.5-35.5c9.9-9.9,22.6-16.5,36.4-18.9l0,0h0.2
				c-0.1,0-0.1,0-0.2,0v10.3h27.4V26.4c18.1,3.1,32.7,12.4,43.5,28c5.5,8.1,9.7,17.1,12.2,26.6H158v29.2h29.2V80.9H174.9z M174,15.4
				c4.2,0,7.7,3.4,7.7,7.7s-3.4,7.7-7.7,7.7s-7.7-3.4-7.7-7.7C166.3,18.8,169.7,15.4,174,15.4z M25.6,30.7c-4.2,0-7.7-3.4-7.7-7.7
				c0-4.2,3.4-7.7,7.7-7.7s7.7,3.4,7.7,7.7C33.2,27.3,29.8,30.7,25.6,30.7z M36.8,86.1v19h-19v-19H36.8z M182.1,105.1h-19v-19h19
				V105.1z"/>
			<path class="st2" d="M139.3,119.7l-34.6-74.2h-2.5v62.4c5.5,1.4,8.8,7,7.4,12.5c-1.2,4.5-5.1,7.6-9.7,7.7h-0.2
				c-5.7-0.1-10.2-4.8-10-10.5c0.1-4.6,3.3-8.6,7.7-9.7V45.5h-2.5l-34.6,74.2c13.1,11.7,16,21.5,17.1,34.7c-4.7,0-8.6,3.7-8.7,8.4
				c0.1,3.7,2.6,7,6.2,8v17.8h49.2v-17.8c3.6-1,7.1-4.3,7.1-8c-0.1-4.7-4-8.5-8.8-8.4h-0.2C123.4,141.2,126.3,131.4,139.3,119.7z
				 M118.8,183.4H80.1v-10.7h38.7L118.8,183.4L118.8,183.4z M122.4,158.6c2.3-0.2,4.4,1.5,4.6,3.8s-1.5,4.4-3.8,4.6
				c-0.2,0-45.7,0-45.7,0c-2.3,0.2-4.4-1.5-4.6-3.8s1.5-4.4,3.8-4.6c0.2,0,0.5,0,0.7,0H122.4z"/>
		</g>
	</g>
</g>
<g>
	
		<image style="overflow:visible;opacity:0.25;" width="185" height="190" xlink:href="2947DD8D8FF3C19B.png"  transform="matrix(1 0 0 1 7.9545 6.4545)">
	</image>
	<g>
		<g>
			<path class="st2" d="M137.8,119.7l-32.8-70.5h-2.4v59.2c4.2,1.1,7.2,4.9,7.3,9.2c0.1,5.4-4.1,9.9-9.5,10h-0.2
				c-5.4-0.1-9.7-4.6-9.5-10c0.1-4.4,3.1-8.1,7.3-9.2V49.2h-2.4l-32.8,70.5c12.4,11.1,15.1,20.4,16.2,32.9c-4.5,0-8.1,3.5-8.2,8
				c0.1,3.6,2.5,6.6,5.9,7.6v16.9h47.4v-16.9c3.4-0.9,5.8-4,5.9-7.6c-0.1-4.5-3.8-8-8.2-8C122.6,140.1,125.3,130.8,137.8,119.7z
				 M119.2,180.2H81.5V170h37.6V180.2z M122.1,156.6c2.2,0.2,3.8,2.1,3.6,4.3c-0.2,2.2-2.1,3.8-4.3,3.6c0,0-10.6,0-21.3,0
				c-10.7,0-21.3,0-21.3,0c-2.2,0.2-4.1-1.4-4.3-3.6c-0.2-2.2,1.4-4.1,3.6-4.3c0.2,0,0.4,0,0.7,0h42.5
				C121.7,156.6,121.9,156.6,122.1,156.6z"/>
			<path class="st2" d="M171.5,82.9c-1-10.1-7.9-25.4-20.1-37.5c-6-5.9-13-10.8-20.7-14.2h28.1c1.1,4,4.1,7.1,8.1,8.4
				c6.4,2,13.2-1.6,15.2-8c2-6.4-1.6-13.2-8-15.2c-6.4-2-13.2,1.6-15.2,8H113v-9.4H87v9.4H41.1c-2-6.4-8.8-10-15.2-8
				c-6.4,2-10,8.8-8,15.2c2,6.4,8.8,10,15.2,8c3.9-1.2,7-4.4,8.1-8.4h28.1c-7.7,3.5-14.7,8.3-20.7,14.2
				C36.4,57.5,29.6,72.8,28.5,82.9H17.3v27.8H45V82.9H33.8c1-7.8,6.4-21.7,18.5-33.7c9.4-9.4,21.5-15.7,34.6-18V41H113v-9.8
				c13.1,2.3,25.2,8.6,34.6,18c12.1,12,17.5,25.9,18.5,33.7H155v27.8h27.8V82.9H171.5z M170.5,20.7c4,0,7.3,3.3,7.3,7.3
				s-3.3,7.3-7.3,7.3c-4,0-7.3-3.3-7.3-7.3C163.2,23.9,166.4,20.7,170.5,20.7z M29.5,35.2c-4,0-7.3-3.3-7.3-7.3s3.3-7.3,7.3-7.3
				c4,0,7.3,3.3,7.3,7.3C36.8,32,33.6,35.2,29.5,35.2z M40.2,87.8v18h-18v-18H40.2z M177.9,105.8h-18v-18h18V105.8z"/>
		</g>
	</g>
</g>
</svg>
