<?xml version="1.0" encoding="utf-8"?>
<!-- Generator: Adobe Illustrator 19.0.0, SVG Export Plug-In . SVG Version: 6.00 Build 0)  -->
<svg version="1.1" id="Layer_1" xmlns="http://www.w3.org/2000/svg" xmlns:xlink="http://www.w3.org/1999/xlink" x="0px" y="0px"
	 viewBox="-127 98 477 477" style="enable-background:new -127 98 477 477;" xml:space="preserve">
<style type="text/css">
	.st0{display:none;}
	.st1{display:inline;fill:#FFFFFF;}
	.st2{fill:#FFFFFF;}
</style>
<g class="st0">
	<path class="st1" d="M182.1,478l-60-198.7c-8.9-29.4-17.7-58.8-26.6-88.2c-0.3-1.1-1-1.4-2-1.4c-11.3,0-22.5,0-33.8,0v-0.1h-34
		c-2,0-2.7,0.7-2.7,2.8c0,7.7,0,15.4,0,23.1c0,0.9-0.1,1.8-0.3,2.7c-2.4,8.3-4.9,16.5-7.4,24.8C-8.1,321.8-31.6,400.5-55,479.2
		c-0.3,1-0.4,2-0.5,3c-0.2,1.4,0.6,2.1,1.8,2.3c1.2,0.2,2.4,0.3,3.6,0.3c13.7,0,27.4,0,41.1,0c7.3,0,9.1-1.3,11.1-8.3
		c6-21.8,11.9-43.5,17.8-65.3c0.5-1.7,1.2-2.2,2.9-2.2c25.5,0.1,50.9,0,76.4,0.1c3,0,2.4-0.3,3.3,2.4c7,23.3,14,46.5,21,69.8
		c0.9,3,1.7,3.6,4.9,3.6c16.2,0,32.5,0,48.7,0C181.6,484.7,183.4,482.3,182.1,478z M34,357.7c9.2-38.3,18.4-76.5,27.6-114.6H62
		c9.3,38.2,18.5,76.3,27.9,114.6H34z"/>
	<path class="st1" d="M269.1,269.5c0,35.6,0,71.1,0,106.7l0,0v106.2c0,2.3,0,2.3-2.3,2.3h-54.6c-2.2,0-2.2,0-2.2-2.3
		c0-33.2,0-66.5,0-99.7c0-37.4-0.1-74.8-0.1-112.2c0-0.5,0-0.9,0-1.4c-0.1-1.2,0.3-1.7,1.6-1.7c18.7,0,37.4,0,56.2,0
		C269.2,267.5,269.1,268.4,269.1,269.5z"/>
	<path class="st1" d="M261.4,235.6c-5.4,5-12,7.4-19.3,8c-7.5,0.6-14.6-0.8-20.8-5.2c-9.3-6.5-13.3-15.7-12.3-27.1
		c1-11.1,6.5-19.2,16.5-24.1c4.5-2.2,9.3-3.1,14.3-3c10.4,0.1,19.3,3.7,25.3,12.5C273.6,209,271.9,225.9,261.4,235.6z"/>
</g>
<path class="st2" d="M111.5,573c-63.2,0-122.6-24.6-167.2-69.3c-44.7-44.7-69.3-104.1-69.3-167.2c0-63.2,24.6-122.6,69.3-167.2
	S48.3,100,111.5,100c63.2,0,122.6,24.6,167.2,69.3c44.7,44.7,69.3,104.1,69.3,167.2c0,63.2-24.6,122.6-69.3,167.2
	S174.7,573,111.5,573z M111.5,106C-15.6,106-119,209.4-119,336.5C-119,463.6-15.6,567,111.5,567C238.6,567,342,463.6,342,336.5
	C342,209.4,238.6,106,111.5,106z"/>
<g id="XMLID_28_">
	<path id="XMLID_61_" class="st2" d="M16.5,367.5c0,25.6-0.3,49.6,0.2,73.7c0.1,7.4-1.9,10.1-9.4,9.4c-6.4-0.6-12.9-0.5-19.3,0
		c-7.3,0.6-9-2.4-9-9.2c0.1-43.9-0.1-87.9-0.1-131.8c0-26.9,0.1-53.7-0.2-80.6c-0.1-6.6,1.8-9.9,8.9-9.7c25.4,0.6,51.3-1.9,76.1,2.2
		c43.7,7.2,57.9,41.1,54.9,78.2c-3.7,45.8-38.4,66.7-81,67.8C31.1,367.6,24.3,367.5,16.5,367.5z M16.8,251.5
		c0,27.5-0.1,52.9,0.2,78.2c0,1.4,3.7,3.8,5.7,3.9c8.1,0.2,16.2,0.3,24.2-0.7c19.8-2.5,32.2-15.7,33.7-34.7
		c1.7-23-6.8-38.7-25.8-43.1C43.1,252.4,30.3,252.7,16.8,251.5z"/>
	<path id="XMLID_60_" class="st2" d="M237,318.8c-3.6-1.3-5.7-1.9-7.6-2.8c-11.6-5.7-23.9-7.6-36.7-6.6c-7.7,0.5-14.4,3.3-17,11.3
		c-2.5,8,2.1,13.5,8.4,17.4c7.8,4.8,15.9,9.3,23.9,13.7c14.3,8,28.7,16.7,33.5,33.5c7.7,26.7-0.9,55.7-34.2,65.3
		c-20.2,5.8-40.4,3.9-60.2-2.7c-5.4-1.8-8.2-4.5-7.8-10.9c0.6-9.2,0.2-18.3,0.2-27.7c10.5,3.6,20.2,7.8,30.3,10.1
		c7,1.6,14.4,1.5,21.6,0.8c7-0.5,13.2-3.8,15.1-11.4c1.9-7.3-0.9-13.3-7-17.5c-5.9-4.1-12.2-7.8-18.4-11.6
		c-6.4-3.9-13.4-7.1-19.5-11.4c-20.3-14.3-26.2-30.2-20.8-54.7c4.5-20.1,23.3-35,45.5-35.8c14.3-0.5,28.9,1.8,43.2,3.2
		c5.2,0.5,7.5,3.8,7.3,9.4C236.8,299.5,237,308.4,237,318.8z"/>
</g>
</svg>
