<svg xmlns="http://www.w3.org/2000/svg" xmlns:xlink="http://www.w3.org/1999/xlink" viewBox="0 0 240 240"><style>.st0{display:none}.st1{display:inline}.st2,.st3{fill:#fff}.st3{display:inline}</style><g id="Layer_1" class="st0"><g class="st1"><path d="M-769.5-340.5h1245v877h-1245z"/><path class="st2" d="M475-340v876H-769v-876H475m1-1H-770v878H476v-878z"/></g><image width="20" height="30" xlink:href="clipboard.png" transform="translate(-286 -103) scale(7.6333)" overflow="visible"/><path class="st3" d="M-286-49.6v168c0 7.7 7.6 7.6 7.6 7.6H-141s7.7 0 7.7-7.6v-168c0-7-7.7-7.6-7.7-7.6h-22.9v-7.6c0-7.6-7.6-7.6-7.6-7.6h-7.6v-15.3c0-7.6-7.6-15.3-15.3-15.2H-225c-7.5 0-15.3 7.6-15.2 15.2v15.3h-7.6s-7.6 0-7.6 7.7v7.6h-22.9c-7.7-.1-7.7 7.5-7.7 7.5z"/><path d="M-263.1-4.2h107v7.7h-107zm0 15.3h107v7.7h-107zm0 15.2h107V34h-107zm0 15.3h107v7.7h-107zm0 15.2h107v7.7h-107zm0 15.3h107v7.7h-107zm0 15.2h76.3V95h-76.3z" id="Lines" class="st1"/><g class="st1"><path d="M-263.1-33h107v6.4h-107z"/><path transform="rotate(90 -259.309 -41.982)" d="M-274.5-45.8h30.5v7.7h-30.5z"/><path transform="rotate(90 -160.024 -41.796)" d="M-175.3-45.6h30.5v7.7h-30.5z"/></g><circle class="st1" cx="-209.7" cy="-78.4" r="9.3"/></g><g id="Black" class="st0"><g class="st1"><path d="M192 48h-16v32.1H64V48H48c-8 0-8 7.9-8 7.9v176c0 8 7.9 8 8 8h143.9s8 0 8-8v-176c.1-7.2-7.9-7.9-7.9-7.9zm-48.1 161.6H64v-8h79.9v8zm32.1-17H64v-8h112v8zm0-17.1H64v-8h112v8zm0-16H64v-8h112v8zm0-17H64v-8h112v8zm0-17H64v-8h112v8zm0-17H64v-8h112v8z"/><path d="M72 73.4h96V40c0-7.9-8-8-8-8h-8V16c0-8-7.9-16-16-16h-32.1c-7.9 0-16 8-16 16v16h-8s-8 0-8 8v33.4zm48-57.3c5.4 0 9.7 4.4 9.7 9.7s-4.4 9.7-9.7 9.7c-5.4 0-9.7-4.4-9.7-9.7s4.3-9.7 9.7-9.7z"/></g></g><g id="White"><path class="st2" d="M192 48h-16v32.1H64V48H48c-8 0-8 7.9-8 7.9v176c0 8 7.9 8 8 8h143.9s8 0 8-8v-176c.1-7.2-7.9-7.9-7.9-7.9zm-48.1 161.6H64v-8h79.9v8zm32.1-17H64v-8h112v8zm0-17.1H64v-8h112v8zm0-16H64v-8h112v8zm0-17H64v-8h112v8zm0-17H64v-8h112v8zm0-17H64v-8h112v8z"/><path class="st2" d="M72 73.4h96V40c0-7.9-8-8-8-8h-8V16c0-8-7.9-16-16-16h-32.1c-7.9 0-16 8-16 16v16h-8s-8 0-8 8v33.4zm48-57.3c5.4 0 9.7 4.4 9.7 9.7s-4.4 9.7-9.7 9.7c-5.4 0-9.7-4.4-9.7-9.7s4.3-9.7 9.7-9.7z"/></g></svg>