<svg xmlns="http://www.w3.org/2000/svg" width="14" height="14" viewBox="0 0 14 14"><path d="M11.096 8.365c-.823 0-1.559.367-2.066.945L5.565 7.578c.035-.193.053-.368.053-.578s-.018-.385-.053-.578L9.029 4.69a2.743 2.743 0 0 0 2.066.945 2.733 2.733 0 0 0 2.729-2.73 2.734 2.734 0 0 0-2.729-2.73 2.733 2.733 0 0 0-2.73 2.73c0 .193.018.385.053.578L4.953 5.215a2.746 2.746 0 0 0-2.065-.945C1.4 4.27.175 5.495.175 7S1.4 9.73 2.905 9.73c.823 0 1.558-.368 2.065-.945l3.465 1.732a3.095 3.095 0 0 0-.052.579c0 1.504 1.225 2.729 2.729 2.729s2.713-1.226 2.713-2.729a2.734 2.734 0 0 0-2.729-2.731zm0-6.825a1.366 1.366 0 0 1 0 2.73 1.365 1.365 0 0 1 0-2.73zM2.905 8.365A1.367 1.367 0 0 1 1.54 7c0-.752.612-1.365 1.365-1.365S4.27 6.248 4.27 7s-.612 1.365-1.365 1.365zm8.191 4.095a1.365 1.365 0 1 1 0-2.73 1.365 1.365 0 0 1 0 2.73z" data-size="14 14"/><path d="M15 2.2c.8-.5 1.3-1.1 1.5-2-.7.4-1.4.7-2.2.8-.7-.6-1.5-1-2.5-1S10 .3 9.3 1s-1 1.5-1 2.5c0 .3 0 .5.1.8-1.4 0-2.8-.4-4.1-1C3.1 2.6 2 1.7 1.2.6.9 1.2.7 1.8.7 2.4c0 .6.1 1.1.4 1.7.3.5.7.9 1.2 1.3-.6 0-1.1-.2-1.6-.4 0 .8.3 1.6.8 2.3.5.6 1.2 1 2 1.2-.3 0-.6.1-.9.1-.2 0-.4 0-.7-.1.2.7.6 1.3 1.2 1.8s1.3.7 2 .7c-1.3 1-2.7 1.5-4.3 1.5-.3 0-.6 0-.8-.1C1.6 13.5 3.4 14 5.4 14c1.2 0 2.4-.2 3.5-.6 1.1-.4 2-.9 2.8-1.6.8-.7 1.4-1.5 2-2.3.6-.8 1-1.8 1.2-2.7.3-.9.4-1.9.4-2.8v-.5c.6-.5 1.2-1.1 1.7-1.8-.7.2-1.3.4-2 .5z" data-size="17 14"/><path d="M4.3 3.4V3c0-.1.1-.2.1-.3.1-.1.1-.1.3-.2.1-.1.3-.1.5-.1h1.2V0H4.5c-1 0-1.8.2-2.3.8-.5.5-.8 1.3-.8 2.3v1.5H0V7h1.4v7h2.9V7h1.9l.3-2.4H4.3V3.4z" data-size="6.5 14"/><path d="M12.3 12.2c-.1.1-.3.2-.4.2H2.1c-.2 0-.3-.1-.4-.2-.1-.1-.2-.3-.2-.4V5.9h1.3c-.1.4-.1.8-.1 1.2 0 1.2.4 2.1 1.3 3 .9.8 1.9 1.2 3.1 1.2.8 0 1.5-.2 2.2-.6.7-.4 1.2-.9 1.6-1.5.4-.6.6-1.3.6-2.1 0-.4-.1-.8-.2-1.2h1.2v5.9c-.1.2-.1.3-.2.4zM9 8.9c-.6.5-1.2.8-2 .8s-1.4-.3-2-.8c-.5-.5-.8-1.2-.8-1.9s.3-1.4.8-1.9 1.2-.8 2-.8 1.4.3 2 .8c.6.5.8 1.1.8 1.9 0 .7-.2 1.4-.8 1.9zm3.2-4.8c-.1.1-.3.2-.4.2h-1.6c-.2 0-.3-.1-.4-.2s-.2-.2-.2-.4V2.2c0-.2 0-.3.2-.4s.3-.2.4-.2h1.6c.2 0 .3.1.4.2s.2.3.2.4v1.5c0 .2 0 .3-.2.4zM13.5.5c-.4-.3-.8-.5-1.3-.5H1.8C1.3 0 .9.2.5.5S0 1.3 0 1.8v10.4c0 .5.2.9.5 1.3s.8.5 1.3.5h10.4c.5 0 .9-.2 1.3-.5s.5-.8.5-1.3V1.8c0-.5-.2-.9-.5-1.3z" data-size="14 14"/><path d="M5.8 0C2 0 0 2.7 0 5c0 1.4.5 2.6 1.7 3.1.2.1.4 0 .4-.2 0-.1.1-.5.2-.6 0-.3 0-.3-.2-.5-.3-.4-.5-.9-.5-1.6 0-2 1.5-3.9 4-3.9C7.8 1.4 9 2.7 9 4.5c0 2.3-1 4.3-2.6 4.3-.8-.1-1.5-.8-1.3-1.6.2-1 .7-2.1.7-2.9 0-.7-.4-1.2-1.1-1.2-.8 0-1.5.9-1.5 2.1 0 .8.3 1.3.3 1.3s-.9 3.7-1 4.4c-.3 1.3 0 2.9 0 3.1 0 .1.1.1.2 0s1.1-1.4 1.5-2.6c-.1-.4.4-2.3.4-2.3.3.5 1.1 1 2 1 2.6 0 4.4-2.4 4.4-5.5C11 2.2 9 0 5.8 0z" data-size="11 14.075"/><path d="M15.9 3.4c.3-1.5-.1-2.5-1-3.1-.9-.5-2-.5-3.2.2-1.4.7-2.2 1.8-2.5 3.3.9-.5 1.6-.5 2 0 .4.5.4 1.3-.1 2.1-1 1.9-1.8 2.9-2.3 2.9-.1 0-.2-.1-.3-.2-.1 0-.2-.3-.3-.6-.2-.3-.2-.6-.3-.9-.1-.3-.2-.8-.4-1.4-.1-.3-.2-.7-.2-1.2-.1-.5-.2-.9-.2-1.3L6.8 2c-.1-.5-.2-.8-.4-1.1L5.8.3c-.3-.2-.6-.2-1-.1-.6.1-1.3.5-2.2 1.2C1.8 2 1.1 2.5.8 2.9c-.3.4-.6.7-.8.9l.7.9.3-.3c.3-.2.5-.3.8-.4.2 0 .5 0 .7.2.1.1.6 1.5 1.3 3.8.7 2.4 1.2 3.8 1.4 4.2.2.4.5.8.8 1.1.3.3.7.5 1.2.6.5.1.9 0 1.4-.3 1.2-.9 2.7-2.2 4.4-4.2 1.5-1.8 2.5-3.8 2.9-6" data-size="15.999 13.991"/><path d="M13.584 5.688c.088.468.136.958.136 1.47C13.72 11.156 11.043 14 7 14c-3.868 0-7-3.133-7-7s3.132-7 7-7c1.891 0 3.469.695 4.682 1.824L9.708 3.798v-.005C8.973 3.093 8.041 2.734 7 2.734c-2.31 0-4.187 1.951-4.187 4.261S4.69 11.262 7 11.262c2.096 0 3.521-1.199 3.815-2.844H7v-2.73h6.584zm5.229.437V3.938h-1.75v2.188h-2.188v1.75h2.188v2.188h1.75V7.875H21v-1.75h-2.187z" data-size="21 14"/><path d="M9.95 4.11A.96.96 0 0 0 9 3.14c-.53 0-.95.43-.95.97v5.85C8.01 12.2 6.23 14 4.02 14 1.8 14 0 12.17 0 9.9V7.36h3.08v2.51c0 .54.43.97.95.97.53 0 .95-.43.95-.97V3.95C5.06 1.75 6.83 0 9 0c2.18 0 3.95 1.77 4.02 3.97v1.3l-1.83.56-1.24-.59V4.11zm4.97 3.25v2.63c0 .53-.43.97-.95.97-.53 0-.95-.43-.95-.97V7.41l-1.83.56-1.24-.59v2.55c.02 2.25 1.82 4.07 4.03 4.07C16.2 14 18 12.17 18 9.9V7.36h-3.08z" data-size="18 14"/><path d="M.227 4.648h2.908V14H.227V4.648zM1.687 0c.929 0 1.686.757 1.686 1.687 0 .929-.757 1.686-1.686 1.686A1.685 1.685 0 0 1 0 1.687C0 .757.751 0 1.687 0m3.254 4.648h2.784V5.93h.037c.388-.735 1.335-1.51 2.751-1.51C13.455 4.421 14 6.357 14 8.876V14h-2.902V9.454c0-1.087-.016-2.481-1.508-2.481-1.514 0-1.742 1.184-1.742 2.4V14H4.946l-.005-9.352z" data-size="14 14"/><path d="M7.504 14C-.305 7.809-.02 5.619.007 3.801.032 2.101 1.406 0 3.705 0s3.698 2.5 3.698 2.5S8.902 0 11.201 0s3.798 2.101 3.798 3.801c0 1.8.199 4-7.495 10.199" data-size="15 14"/><path d="M10.612 0C9.217 0 7.956.731 7.369 1.871 6.782.731 5.505 0 4.109 0 1.928 0-.997 1.758.335 6.555 1.857 11.244 7.368 14 7.368 14s5.503-2.754 7.025-7.445C15.726 1.758 12.793 0 10.612 0z" data-size="14.727 14"/><path d="M15.166 4.266c0-.492-.066-.927-.195-1.303-.131-.377-.297-.676-.502-.898a2.404 2.404 0 0 0-.742-.542 3.28 3.28 0 0 0-.857-.282c-.279-.049-.576-.073-.893-.073s-.656.077-1.021.232a4.691 4.691 0 0 0-1.006.583c-.309.233-.571.452-.79.656s-.402.39-.547.561a.549.549 0 0 1-.447.2.547.547 0 0 1-.446-.201 7.14 7.14 0 0 0-.547-.561 10.968 10.968 0 0 0-.788-.656 4.699 4.699 0 0 0-1.008-.583 2.615 2.615 0 0 0-1.021-.232c-.316 0-.613.024-.893.073a3.25 3.25 0 0 0-.856.282c-.292.14-.539.321-.743.542s-.37.521-.501.898a3.965 3.965 0 0 0-.196 1.304c0 1.021.568 2.1 1.705 3.236l5.295 5.103 5.287-5.094c1.142-1.143 1.712-2.224 1.712-3.245zm1.166 0c0 1.343-.695 2.71-2.086 4.102l-5.679 5.469a.553.553 0 0 1-.401.163.548.548 0 0 1-.4-.164L2.078 8.35a3.08 3.08 0 0 1-.251-.238 9.67 9.67 0 0 1-.505-.597 7.814 7.814 0 0 1-.62-.889 5.514 5.514 0 0 1-.488-1.103A3.98 3.98 0 0 1 0 4.266C0 2.929.386 1.884 1.157 1.13 1.93.377 2.996 0 4.356 0c.377 0 .762.065 1.154.196.392.131.756.307 1.094.528.337.222.627.43.87.624.243.195.474.402.692.62.22-.218.45-.425.693-.62.243-.193.534-.402.871-.623a4.628 4.628 0 0 1 1.094-.528A3.592 3.592 0 0 1 11.977 0c1.361 0 2.428.377 3.199 1.13s1.156 1.799 1.156 3.136z" data-size="16.332 14"/><path d="M12.255 10.115v-2.24H7v-1.75h5.254V3.884L16.4 6.973l-4.145 3.142zm-3.457-.217c-.022.077-.048.153-.048.237v2.115h-7V1.75h7v2.114c0 .084.026.159.048.236h1.654c.024-.077.048-.152.048-.236V.875A.874.874 0 0 0 9.625 0H.875A.875.875 0 0 0 0 .875v12.25c0 .482.392.875.875.875h8.75a.875.875 0 0 0 .875-.875v-2.99a.774.774 0 0 0-.048-.236H8.798z" data-size="16.401 14"/><path d="M7 0v4.136h.653v-3.5h12.693v12.727H7.653v-3.5H7V14h14V0H7zm3.391 3.75l.45-.45 3.7 3.7-3.7 3.699-.45-.449 2.934-2.933H0v-.635h13.322L10.391 3.75z" data-size="21 14"/><path d="M4.439 5.175H7V0h2v5.175h2.561L8.029 9.914l-3.59-4.739zM14 7.691V12H2V7.691H0V13a1 1 0 0 0 1 1h14a1 1 0 0 0 1-1V7.691h-2z" data-size="16 14"/><path d="M14 12.383l-2.73-2.73a6.138 6.138 0 0 0 1.078-3.479A6.181 6.181 0 0 0 6.174 0 6.181 6.181 0 0 0 0 6.173a6.18 6.18 0 0 0 6.174 6.174c1.29 0 2.486-.398 3.478-1.078l2.73 2.73L14 12.383zM1.759 6.173a4.42 4.42 0 0 1 4.415-4.415c2.433 0 4.414 1.98 4.414 4.415s-1.98 4.415-4.414 4.415a4.42 4.42 0 0 1-4.415-4.415" data-size="14 14"/><path d="M13.84 14V9.801C8.492 8.463 4.42 9.041.408 12.144l-.15.117c-.137.104-.192.103-.226.077-.035-.027-.055-.066.014-.234.092-.228.196-.445.298-.658C3.208 5.443 7.902 4.2 13.84 4.2V0l8.4 7-8.4 7z" data-size="22.24 14"/><path d="M14.036 3.5H14h.036zM22.203 0h-3.536s1.896 1.239 2.304 3.5h1.232A2.279 2.279 0 0 1 24.5 5.797V8.13c0 1.283-1.014 2.37-2.297 2.37h-8.167c-1.283 0-2.369-1.087-2.369-2.37V5.833h-3.5V8.13c0 .839.182 1.641.503 2.37.919 2.057 2.982 3.5 5.366 3.5h8.167C25.426 14 28 11.354 28 8.13V5.797A5.77 5.77 0 0 0 22.203 0zm-2.837 3.5a5.771 5.771 0 0 0-5.33-3.5H5.87C2.646 0 0 2.574 0 5.797V8.13C0 11.354 2.646 14 5.87 14h3.463s-1.881-1.239-2.34-3.5H5.87c-1.283 0-2.37-1.087-2.37-2.37V5.797C3.5 4.514 4.587 3.5 5.87 3.5h8.166a2.279 2.279 0 0 1 2.297 2.297v2.37h3.5v-2.37a5.83 5.83 0 0 0-.467-2.297z" data-size="28 14"/><path d="M3.3 10.7c-.4-.4-.8-.6-1.4-.6-.6 0-1 .2-1.4.6-.3.4-.5.9-.5 1.4 0 .5.2 1 .6 1.4.3.3.8.5 1.3.5s1-.2 1.4-.6c.3-.4.6-.8.6-1.4-.1-.4-.3-.9-.6-1.3zm4.8-.4c-.5-1-1-1.8-1.8-2.6S4.7 6.3 3.7 5.9c-1-.5-2-.7-3-.8H.6c-.2 0-.3 0-.4.2-.1.1-.2.2-.2.4v1.4c0 .1 0 .3.2.4.1.1.2.2.4.2 1.5.1 2.8.7 3.9 1.8s1.7 2.4 1.8 3.9c0 .2.1.3.2.4.1.1.3.2.4.2h1.4c.2 0 .3-.1.5-.2.1-.1.2-.3.2-.5-.2-1-.4-2.1-.9-3zm4.7-2c-.7-1.6-1.7-3-2.9-4.2-1.3-1.2-2.7-2.2-4.3-2.9C4.1.5 2.4.1.7 0 .5 0 .3 0 .2.2.1.3 0 .5 0 .6V2c0 .1.1.3.2.4.1.1.2.2.4.2 1.4.1 2.8.4 4.1 1C6 4.3 7.1 5 8 6c.9.9 1.7 2 2.3 3.3s.9 2.6 1 4.1c0 .1.1.3.2.4.1.1.3.2.5.2h1.4c.2 0 .3-.1.5-.2.1-.1.2-.3.2-.5-.2-1.7-.6-3.4-1.3-5z" data-size="14.1 14"/><path d="M0 0h3v3H0V0zm5 3h3V0H5v3zm5 0h3V0h-3v3zM0 8h3V5H0v3zm5 0h3V5H5v3zm5 0h3V5h-3v3zM0 13h3v-3H0v3zm5 0h3v-3H5v3zm5 0h3v-3h-3v3z" data-size="13 13"/><path d="M0 0h6v3H0V0zm0 8h6V5H0v3zm0 5h6v-3H0v3zM8 0h6v3H8V0zm0 8h6V5H8v3zm0 5h6v-3H8v3z" data-size="14 13"/><path d="M0 0h1v13H0V0zm12 0h1v13h-1V0zM3 0h7v13H3V0z" data-size="13 13"/><path d="M7.001 0A7.008 7.008 0 0 0 0 7.001C0 10.86 3.14 14 7.001 14A7.007 7.007 0 0 0 14 7.001C14 3.14 10.86 0 7.001 0m0 12.25A5.256 5.256 0 0 1 1.75 7.001 5.257 5.257 0 0 1 7.001 1.75a5.255 5.255 0 0 1 5.249 5.251 5.255 5.255 0 0 1-5.249 5.249m-.526-5.688c.052-.057.215-.212.215-.212l2.414-2.3.966 1.013-2.423 2.31v2.479h-1.4V7.071c.003-.071-.002-.168.059-.286.044-.085.103-.152.169-.223" data-size="14 14"/><path d="M12.857 1.413h-1.68V0h-1.4v1.413h-5.6V0h-1.4v1.413H1.12A1.12 1.12 0 0 0 0 2.533V12.88C0 13.498.501 14 1.12 14h11.737a1.12 1.12 0 0 0 1.121-1.12V2.533a1.12 1.12 0 0 0-1.121-1.12zM12.578 12.6h-11.2v-7h11.2v7zm0-8.4h-11.2V2.8h11.2v1.4zM6.417 7h1.4v1.4h-1.4V7zm2.799 0h1.4v1.4h-1.4V7zM6.417 9.8h1.4v1.4h-1.4V9.8zm-2.8 0h1.4v1.4h-1.4V9.8z" data-size="14 14"/><path d="M0 5h15v3H0V5zm0 8h11.948v-3H0v3zM0 3h9.092V0H0v3z" data-size="15 13"/><path d="M4.862 0H15v3H4.862V0zM0 3h2.596V0H0v3zm0 5h2.596V5H0v3zm0 5h2.596v-3H0v3zm4.862-5h8.075V5H4.862v3zm0 5h6.145v-3H4.862v3z" data-size="15 13"/><path d="M7.011 5.569c.783 0 1.419.641 1.419 1.431 0 .791-.636 1.432-1.419 1.432A1.426 1.426 0 0 1 5.592 7c0-.791.635-1.431 1.419-1.431m5.104 2.647a5.299 5.299 0 0 1-.537 1.361l1.105 1.641-1.462 1.465-1.48-1.171a5.22 5.22 0 0 1-1.411.604L8.045 14H5.977l-.219-1.863a5.13 5.13 0 0 1-1.402-.585L2.8 12.683l-1.462-1.465 1.107-1.636a5.264 5.264 0 0 1-.518-1.298L0 8.036l.021-2.071 1.918-.292c.122-.47.305-.909.542-1.32l-1.143-1.57L2.8 1.319l1.51 1.155a5.156 5.156 0 0 1 1.348-.577L5.977 0h2.068l.344 1.904c.475.131.924.324 1.337.576l1.496-1.161 1.462 1.464-1.126 1.604c.231.406.413.844.531 1.309L14 5.965v2.071l-1.885.18zM9.821 7.001c0-1.565-1.262-2.834-2.811-2.834S4.2 5.438 4.2 7.001c0 1.563 1.262 2.832 2.811 2.832s2.81-1.271 2.81-2.832" data-size="14 14"/><path d="M12.376 9.037a5.76 5.76 0 0 0-2.164-6.811 5.766 5.766 0 0 0-8.309 2.073l-1.377-.71c-.076-.04-.166.035-.151.123l.619 3.911c.011.066.08.101.141.072l3.544-1.76c.082-.04.088-.157.014-.196L3.318 5.03a4.173 4.173 0 0 1 5.836-1.597c1.775 1.07 2.494 3.339 1.661 5.237a4.177 4.177 0 0 1-5.121 2.297.797.797 0 0 0-.951.392.788.788 0 0 0 .444 1.11 5.763 5.763 0 0 0 7.189-3.432z" data-size="14 14"/><path d="M18.26 14H1.74C.78 14 0 13.22 0 12.25V1.75C0 .78.78 0 1.74 0h16.52C19.22 0 20 .78 20 1.75v10.5c0 .97-.78 1.75-1.74 1.75zM.87 5.69h18.26V3.94H.87v1.75zm18.26-3.94a.88.88 0 0 0-.87-.88H1.74c-.48 0-.87.39-.87.88v1.31h18.26V1.75zm0 4.81H.87v5.69c0 .48.39.88.87.88h16.52c.48 0 .87-.39.87-.88V6.56zm-8.26 2.63H9.13c-.24 0-.44-.2-.44-.44s.19-.44.44-.44h1.74c.24 0 .44.2.44.44s-.2.44-.44.44zm-3.91 0H3.04c-.24 0-.43-.2-.43-.44s.19-.44.43-.44h3.91c.24 0 .43.2.43.44s-.18.44-.42.44zM3.04 10.5h2.61c.24 0 .43.2.43.44s-.19.44-.43.44H3.04c-.24 0-.43-.2-.43-.44s.19-.44.43-.44z" data-size="20 14"/><path d="M20 1H0V0h20v1zm0 12H0v1h20v-1zM1 1H0v12h1V1zm19 0h-8v12h8V1z" data-size="20 14"/><path d="M6.276 7.724c3.335 0 5.916 2.361 6.273 5.742a.48.48 0 0 1-.48.534H.483a.485.485 0 0 1-.36-.16.488.488 0 0 1-.12-.374c.358-3.381 2.938-5.742 6.273-5.742m0-.965a3.38 3.38 0 0 0 0-6.759 3.378 3.378 0 0 0-3.379 3.38 3.379 3.379 0 0 0 3.379 3.379" data-size="12.55 14"/><path d="M12.833 11.64c0 .729-.222 1.305-.665 1.727-.444.422-1.033.633-1.769.633H2.434c-.735 0-1.325-.211-1.769-.634C.222 12.944 0 12.368 0 11.64c0-.322.011-.637.031-.943A9.13 9.13 0 0 1 .4 8.714c.098-.304.229-.601.393-.889.164-.289.353-.535.564-.738.213-.204.473-.366.78-.488a2.755 2.755 0 0 1 1.017-.182c.055 0 .183.065.383.195.2.131.427.276.679.438.253.161.581.308.984.438.404.131.81.196 1.217.196s.813-.065 1.217-.196c.404-.13.732-.276.984-.438.253-.161.479-.307.68-.438.2-.13.328-.195.383-.195.37 0 .709.061 1.016.182.308.122.567.284.779.488.213.203.401.449.565.738.164.288.295.585.392.889.098.304.178.633.242.988a9.4 9.4 0 0 1 .127.994c.02.307.031.621.031.944zM9.916 3.5c0 .966-.342 1.791-1.025 2.475S7.383 7 6.416 7c-.966 0-1.791-.342-2.475-1.025S2.916 4.466 2.916 3.5s.342-1.791 1.025-2.475S5.45 0 6.416 0c.967 0 1.791.342 2.475 1.025S9.916 2.534 9.916 3.5z" data-size="12.833 14"/><path d="M9.424 3.32c-.615-.575-1.479-.904-2.465-.945h-.698c-1.027.041-1.849.37-2.465.945-.78.739-1.232 1.889-1.232 3.327v3.289c0 .904.739 1.643 1.725 1.643.904 0 1.643-.738 1.643-1.643V6.565c0-.327.247-.575.575-.575.329 0 .573.205.573.534v3.369c0 1.068-.285 1.933-.861 2.424-.493.492-1.232.699-2.219.617-.821 0-1.437-.207-1.889-.657-.534-.534-.821-1.354-.821-2.423V5.909c0-.207.041-1.192.534-2.26A4.61 4.61 0 0 1 3.468 1.76c.657-.412 1.807-.946 3.821-.617a.544.544 0 0 0 .615-.411.544.544 0 0 0-.412-.616C5.726-.172 4.247.075 2.933.856 2.03 1.43 1.372 2.211.88 3.155a6.7 6.7 0 0 0-.616 2.712v4.026c0 1.355.411 2.424 1.15 3.164.616.615 1.479.902 2.505.943h.411c1.109 0 1.972-.328 2.628-.943.779-.74 1.191-1.85 1.191-3.203v-3.37a1.603 1.603 0 0 0-3.205 0v3.411c0 .328-.288.615-.699.615a.631.631 0 0 1-.616-.615V6.606c0-1.108.329-2.013.904-2.546.493-.452 1.232-.698 2.136-.657.903 0 1.602.205 2.096.657.574.534.901 1.438.901 2.546v3.289c0 .287.246.533.533.533a.543.543 0 0 0 .535-.533V6.606c-.121-1.397-.531-2.547-1.31-3.286z" data-size="11 14"/><path d="M9.768 10.396c-2.588-.535-3.862-2.014-3.862-4.52v-.452c0-.289-.206-.534-.493-.534h-.041c-.288 0-.493.205-.534.493v.534c0 3 1.604 4.931 4.684 5.546.289.041.576-.123.617-.41.082-.328-.123-.576-.371-.657zm.535-2.343c-1.931-.205-1.972-1.315-1.972-2.384v-.41c-.124-1.848-1.192-2.917-2.877-2.958h-.041c-1.356 0-2.711.986-2.752 2.875v.945c0 3.411 1.561 5.794 4.726 7.273.244.123.574 0 .696-.248.124-.246 0-.574-.246-.697-2.795-1.315-4.109-3.329-4.109-6.328v-.944c.041-1.313.903-1.89 1.726-1.848 1.192.041 1.767.697 1.892 2.013v.369c.041 1.068.082 3.081 2.916 3.409.287.041.534-.163.575-.452-.041-.327-.247-.574-.534-.615zM.194 7.561c.205 3.532 2.136 5.465 2.958 6.287a.524.524 0 0 0 .739 0 .52.52 0 0 0 0-.74c-.739-.739-2.464-2.467-2.629-5.588a28.107 28.107 0 0 1 0-2.629c.165-2.178 1.972-3.78 4.232-3.78 2.302 0 4.15 1.684 4.15 3.739v1.068c0 .288.246.534.533.534a.543.543 0 0 0 .534-.534V4.849C10.63 2.136 8.331 0 5.454 0 2.661 0 .358 2.054.194 4.766a31.012 31.012 0 0 0 0 2.795z" data-size="11 14"/><path d="M9.768 10.396c-2.588-.535-3.862-2.014-3.862-4.52v-.452c0-.289-.206-.534-.493-.534h-.041c-.288 0-.493.205-.534.493v.534c0 3 1.604 4.931 4.684 5.546.289.041.576-.123.617-.41.082-.328-.123-.576-.371-.657zm.535-2.343c-1.931-.205-1.972-1.315-1.972-2.384v-.41c-.124-1.848-1.192-2.917-2.877-2.958h-.041c-1.356 0-2.711.986-2.752 2.875v.945c0 3.411 1.561 5.794 4.726 7.273.244.123.574 0 .696-.248.124-.246 0-.574-.246-.697-2.795-1.315-4.109-3.329-4.109-6.328v-.944c.041-1.313.903-1.89 1.726-1.848 1.192.041 1.767.697 1.892 2.013v.369c.041 1.068.082 3.081 2.916 3.409.287.041.534-.163.575-.452-.041-.327-.247-.574-.534-.615zM.194 7.561c.205 3.532 2.136 5.465 2.958 6.287a.524.524 0 0 0 .739 0 .52.52 0 0 0 0-.74c-.739-.739-2.464-2.467-2.629-5.588a28.107 28.107 0 0 1 0-2.629c.165-2.178 1.972-3.78 4.232-3.78 2.302 0 4.15 1.684 4.15 3.739v1.068c0 .288.246.534.533.534a.543.543 0 0 0 .534-.534V4.849C10.63 2.136 8.331 0 5.454 0 2.661 0 .358 2.054.194 4.766a31.012 31.012 0 0 0 0 2.795z" data-size="11 14"/><path d="M3.474 7.824a.508.508 0 0 0 .7-.248.507.507 0 0 0-.247-.699 3.13 3.13 0 0 1-1.688-2.76c0-1.729 1.4-3.088 3.088-3.088 1.688 0 3.089 1.4 3.089 3.088 0 .988-.578 1.895-1.772 2.801-.329.246-1.358.988-1.483 2.307-.041.287.166.534.453.575h.043a.57.57 0 0 0 .535-.452c.082-.865.782-1.359 1.111-1.605 1.44-1.072 2.142-2.265 2.142-3.625C9.486 1.853 7.633 0 5.368 0c-2.266 0-4.16 1.853-4.16 4.158a4.07 4.07 0 0 0 2.266 3.666zm3.541-3.666c0-.905-.74-1.646-1.646-1.646s-1.648.741-1.648 1.646c0 .906.741 1.647 1.647 1.647a1.651 1.651 0 0 0 1.647-1.647zm-2.43 0c0-.411.33-.74.742-.74.41 0 .74.329.74.74a.74.74 0 1 1-1.482 0zm3.419 5.067c-.289-.084-.576.041-.659.328a1.258 1.258 0 0 1-.165.33c-.329.535-.946.864-1.604.864-.659 0-1.318-.329-1.647-.864-.043-.083-.125-.207-.167-.33-.082-.287-.37-.412-.659-.328-.288.082-.412.369-.329.658.041.164.124.37.247.535a3.012 3.012 0 0 0 2.512 1.357 3.015 3.015 0 0 0 2.513-1.357 1.57 1.57 0 0 0 .246-.535c.165-.289-.001-.576-.288-.658zm2.346-2.842a.545.545 0 0 0-.535.535V9.1c0 2.143-1.893 3.871-4.282 3.871-2.388 0-4.283-1.729-4.283-3.871v-.246a.544.544 0 0 0-.535-.535.544.544 0 0 0-.535.535V9.1c0 2.719 2.388 4.9 5.312 4.9 2.925 0 5.313-2.225 5.313-4.9V6.918c.082-.33-.166-.535-.455-.535z" data-size="11 14"/><path d="M6.471 5.052a.522.522 0 1 0-.74.739c.822.78 3.038 2.915 3.695 3.529.082.082.245.123.37.123.121 0 .285-.041.369-.162.205-.207.164-.534-.043-.74-.614-.575-2.872-2.708-3.651-3.489zm-3.9 2.751a13.374 13.374 0 0 1-.411-.658c-.944-1.641-.534-3.611.985-5.048.042-.041 2.709-2.422 5.583.082.041.041.328.288.534.492l.205.206c.204.205.532.164.739-.041.205-.206.164-.534-.041-.739l-.207-.205a9.276 9.276 0 0 1-.532-.493C6.717-.94 3.761.086 2.406 1.358.518 3.123.067 5.585 1.257 7.68c.123.245.287.491.452.738.903 1.355 1.272 2.135-.123 3.119-.247.166-.288.492-.124.74a.51.51 0 0 0 .411.203c.123 0 .205-.041.287-.082 2.299-1.68 1.19-3.365.411-4.595zM8.852 10.8C7.703 9.691 6.225 8.337 5.075 7.145c-.945-.943-1.027-2.175-.247-2.954.821-.821 1.93-.739 2.916.246.491.452.86.821 1.189 1.108.246.205.41.37.574.533a.517.517 0 0 0 .737 0 .516.516 0 0 0 0-.738c-.164-.123-.328-.329-.574-.533a27.435 27.435 0 0 1-1.189-1.109c-1.437-1.354-3.16-1.437-4.393-.206-1.189 1.189-1.107 3.078.248 4.433 1.19 1.231 2.668 2.586 3.817 3.694.41.369.78.74 1.067 1.025a.601.601 0 0 0 .368.166c.123 0 .289-.041.369-.166a.518.518 0 0 0 0-.737c-.368-.37-.736-.697-1.105-1.107zm-3.326 1.025c-.944 0-1.765.534-2.134 1.396-.123.245 0 .574.246.696.246.123.575 0 .698-.245a1.314 1.314 0 0 1 1.19-.779c.494 0 .986.287 1.191.779a.532.532 0 0 0 .492.328c.084 0 .125 0 .207-.041a.527.527 0 0 0 .244-.695 2.3 2.3 0 0 0-2.134-1.439z" data-size="11 14"/><path d="M4.799 10.899a.276.276 0 0 1-.017.253L3.15 13.865a.273.273 0 0 1-.225.134h-.011a.282.282 0 0 1-.225-.113l-.912-1.257-1.534-.194c-.093-.013-.173-.07-.214-.154s-.037-.183.012-.263L1.679 9.29a.28.28 0 0 1 .217-.134c.088-.01.176.03.232.099a4.422 4.422 0 0 0 2.473 1.483.281.281 0 0 1 .198.161m2.788 0a.276.276 0 0 0 .018.253l1.631 2.713c.049.08.133.13.226.134h.013a.282.282 0 0 0 .225-.113l.912-1.257 1.533-.194c.094-.013.174-.07.215-.154s.037-.183-.012-.263l-1.64-2.728a.279.279 0 0 0-.216-.134.268.268 0 0 0-.233.099 4.422 4.422 0 0 1-2.473 1.483.28.28 0 0 0-.199.161M6.193 0c2.742 0 4.974 2.248 4.974 5.01 0 2.763-2.232 5.011-4.974 5.011-2.741 0-4.973-2.248-4.973-5.009C1.22 2.248 3.452 0 6.193 0m0 7.687a2.672 2.672 0 0 0 2.66-2.675 2.67 2.67 0 0 0-2.66-2.678c-1.465 0-2.658 1.201-2.658 2.678a2.67 2.67 0 0 0 2.658 2.675m0-3.937c-.689 0-1.25.563-1.25 1.258 0 .696.561 1.26 1.25 1.26.69 0 1.25-.563 1.25-1.259s-.56-1.259-1.25-1.259" data-size="12.39 14"/><path d="M1.593 14h-.411A1.181 1.181 0 0 1 0 12.818V1.183C0 .529.529 0 1.182 0h.411c.653 0 1.182.529 1.182 1.183v11.636A1.18 1.18 0 0 1 1.593 14m4.061 0c.653 0 1.182-.528 1.182-1.182V1.183C6.836.529 6.307 0 5.654 0h-.411C4.59 0 4.061.529 4.061 1.183v11.636A1.18 1.18 0 0 0 5.243 14h.411m9.205-.258c.598-.261.873-.956.611-1.556L10.836 1.514A1.184 1.184 0 0 0 9.281.9l-.377.164c-.6.261-.873.956-.613 1.556l4.635 10.673c.26.598.957.873 1.557.613l.376-.164" data-size="15.57 14"/><path d="M11.3 0L8.7 3.5h1.8v8.8H1.7V1.7H7c.5 0 .8-.4.8-.8C7.8.4 7.4 0 7 0H.8C.4 0 0 .4 0 .8v12.3c0 .5.4.9.8.9h10.5c.5 0 .8-.4.8-.8V3.5H14L11.3 0zM3.8 5.3h4.6v1.2H3.8V5.3zm0 2.7h4.6v1.2H3.8V8z" data-size="14 14"/><path d="M12.226 7.678l6.929 5.939a1.407 1.407 0 0 1-.965.383H1.41c-.375 0-.715-.145-.967-.38l6.933-5.942L9.8 9.8l2.426-2.122zM9.8 8.4L.446.382C.698.146 1.037 0 1.41 0h16.78c.375 0 .715.144.967.379L9.8 8.4zm9.8 4.459L12.835 7.11 19.6 1.226v11.633zm-19.6 0V1.229L6.766 7.11 0 12.859z" data-size="19.6 14"/><path d="M20.121 0H1.753A1.75 1.75 0 0 0 0 1.745v10.51C0 13.219.778 14 1.753 14h18.368a1.75 1.75 0 0 0 1.754-1.745V1.745C21.875.781 21.097 0 20.121 0zm-.433.875l-8.75 7.612L2.188.875h17.5zM1.149 12.887a.884.884 0 0 1-.274-.643V1.756c0-.253.106-.48.275-.641L7.919 7l-6.77 5.887zm1.039.238l6.387-5.556 2.363 2.056 2.363-2.056 6.387 5.556h-17.5zM21 12.244c0 .253-.105.48-.275.642L13.956 7l6.771-5.887a.883.883 0 0 1 .273.643v10.488z" data-size="21.875 14"/><path d="M0 0h18.667v14H0V0zm1.167 1.167v11.667H17.5V1.167H1.167zm1.174 10.531s1.213-8.194 3.015-8.194 2.591 5.779 4.039 5.779c1.449 0 1.34-2.258 2.402-2.258s4.712 4.673 4.712 4.673H2.341zm12.242-5.865a1.75 1.75 0 1 1 .001-3.501 1.75 1.75 0 0 1-.001 3.501z" data-size="18.667 14"/><path d="M14.711 2.192h-1.863C12.676.919 11.588 0 10.182 0H7.484C6.08 0 4.991.919 4.82 2.192H2.957C1.216 2.192 0 3.264 0 4.798v6.245A2.961 2.961 0 0 0 2.957 14h11.754a2.961 2.961 0 0 0 2.957-2.957V5.148a2.962 2.962 0 0 0-2.957-2.956m1.207 8.851c0 .666-.541 1.207-1.207 1.207H2.957a1.209 1.209 0 0 1-1.208-1.207V4.798c0-.774.845-.857 1.208-.857l2.717-.002a.874.874 0 0 0 .872-.874v-.52c0-.548.487-.797.938-.797h2.698c.453 0 .939.249.939.797v.52c0 .481.389.872.871.874l.537.002h2.182c.666 0 1.207.542 1.207 1.207v5.895zm-7.083-6.34c-1.737 0-3.148 1.412-3.148 3.148S7.098 11 8.835 11c1.734 0 3.146-1.412 3.146-3.148s-1.412-3.149-3.146-3.149m0 4.899c-.965 0-1.75-.785-1.75-1.75 0-.963.785-1.748 1.75-1.748.963 0 1.748.785 1.748 1.748 0 .964-.785 1.75-1.748 1.75" data-size="17.67 14"/><path d="M7 0C3.14 0 0 3.141 0 7.002 0 10.859 3.14 14 7 14c3.861 0 7-3.141 7-6.998C14 3.141 10.861 0 7 0m0 10.601a.823.823 0 1 1-.001-1.647A.823.823 0 0 1 7 10.601m.824-2.997c0 .302-.248.55-.55.55h-.548a.552.552 0 0 1-.55-.55V3.948c0-.303.248-.55.55-.55h.548c.302 0 .55.247.55.55v3.656z" data-size="14 14"/><path d="M7 0a7 7 0 1 0 0 14A7 7 0 0 0 7 0zm.971 11.737H6.364v-1.709H7.97v1.709zM9.936 6.06c-.157.344-.336.611-.537.8s-.645.492-1.271.994c-.074.06-.164.266-.159.474.006.25-.011.672-.016.672H6.375l.016-.875c0-.31.034-.73.16-.908.125-.178.311-.244.734-.572.647-.497 1.016-1.023 1.016-1.579 0-.419-.103-.752-.357-.998-.252-.246-.57-.369-.976-.369-.938 0-1.488.649-1.656 1.948L3.825 5.38c.091-.971.452-1.733 1.078-2.287.627-.553 1.379-.83 2.254-.83.87 0 1.591.259 2.161.776s.854 1.161.854 1.931c0 .383-.078.746-.236 1.09z" data-size="14 14"/><path d="M13.088 3.091h-2.817c0-.014.007-.023.007-.036v-.754A2.304 2.304 0 0 0 7.979 0H6.022a2.301 2.301 0 0 0-2.298 2.301v.754c0 .013.007.022.007.036H.912a.875.875 0 1 0 0 1.75h.982V11.7c0 1.269 1.032 2.3 2.3 2.3h5.612c1.268 0 2.3-1.031 2.3-2.3V4.841h.981a.875.875 0 0 0 .001-1.75m-7.27 8.045a.656.656 0 0 1-1.312 0v-5.03a.657.657 0 0 1 1.312 0v5.03zm3.465 0a.656.656 0 0 1-1.311 0v-5.03a.656.656 0 0 1 1.311 0v5.03zM5.474 3.055v-.754a.55.55 0 0 1 .549-.551h1.956a.55.55 0 0 1 .549.551v.754c0 .013.007.022.007.036H5.467c0-.014.007-.024.007-.036" data-size="14 14"/><path d="M8.999 14h-1.7L5.5 4.1 3.9 9.6H0V7.8h2.6L4.8 0h1.8l1.8 10.099L11.099 2.2H12.7l2.198 5.7 1.4-3.8h3.699v1.8h-2.499l-1.8 4.8h-1.7L12 5.2 8.999 14z" data-size="20 14"/><path d="M12.344 3.156C12.344 1.356 9.689 0 6.172 0 2.653 0 0 1.356 0 3.156c0 .592.291 1.134.801 1.597l4.197 5.645V14h2.458v-3.666l4.098-5.591c.503-.461.79-1 .79-1.587M6.172 1.513c2.801 0 4.658.989 4.658 1.644 0 .653-1.857 1.643-4.658 1.643-2.8 0-4.659-.99-4.659-1.644 0-.654 1.859-1.643 4.659-1.643" data-size="12.344 14"/><path d="M3.68 20.74h7.43v1.449H3.68V20.74zm0 7.93h7.43v-1.449H3.68v1.449zm0 6.471h7.43V33.69H3.68v1.451zm24.6-12.952h7.431V20.74H28.28v1.449zm0 6.481h7.431v-1.449H28.28v1.449zm0 6.471h7.431V33.69H28.28v1.451zM13.49 28.67h12.83v-1.449H13.49v1.449zm0 6.471h12.83V33.69H13.49v1.451zM38.609 15.45A1.411 1.411 0 0 1 40 16.87v21.71A1.41 1.41 0 0 1 38.6 40H1.4A1.41 1.41 0 0 1 0 38.58V16.87a1.41 1.41 0 0 1 1.4-1.42h6.39v-14A1.441 1.441 0 0 1 9.22 0h20.76a1.44 1.44 0 0 1 1.43 1.45v14h7.199M9.22 16.55h5.9l.23.35.72 1.1.34.52.39.6 1 1.45.11.17 1 1.449.62.941.62-.941 1-1.449.11-.17 1-1.45.39-.6.34-.52.721-1.1.229-.35h6.08V1.48H9.22m29.45 37.059V16.9h-7.199A1.501 1.501 0 0 1 30.04 18h-5.229l-.74 1.12-1 1.45-.109.17h3.399v1.449h-4.35l-1.76 2.68a.701.701 0 0 1-1.181 0l-1.76-2.68h-3.78V20.74h2.83l-.11-.17-1-1.45-.74-1.12H9.28a1.5 1.5 0 0 1-1.43-1.1H1.43v21.639h37.24zM14.66 8.5a.71.71 0 0 0 0 1.42h9.92a.71.71 0 1 0 0-1.42h-9.92m5.671-4.25a.71.71 0 0 0-1.42 0v9.92a.71.71 0 1 0 1.42 0V4.25" data-size="17 14"/><path d="M10.148 4.96h-.513V3.462A3.466 3.466 0 0 0 6.174 0a3.467 3.467 0 0 0-3.463 3.462V4.96h-.394A2.32 2.32 0 0 0 0 7.277v4.405A2.32 2.32 0 0 0 2.317 14h7.832a2.32 2.32 0 0 0 2.316-2.317V7.277a2.32 2.32 0 0 0-2.317-2.317M6.699 9.859v1.009c0 .256-.21.466-.466.466a.468.468 0 0 1-.467-.466V9.859a1.165 1.165 0 1 1 .933 0M7.867 4.96H4.479V3.462a1.695 1.695 0 0 1 3.388 0V4.96z" data-size="12.46 14"/><path d="M13.273 7.712H2.096c-.489 0-.768.419-.699.838l.979 4.332A1.427 1.427 0 0 0 3.772 14h7.755c.697 0 1.256-.49 1.396-1.118l.979-4.332c.141-.419-.209-.838-.629-.838zm-6.287 3.493a.7.7 0 0 1-.698.699.702.702 0 0 1-.699-.699V9.809a.7.7 0 0 1 .699-.7.7.7 0 0 1 .698.7v1.396zm2.795 0c0 .348-.279.699-.699.699s-.697-.352-.697-.699V9.809a.698.698 0 1 1 1.396 0v1.396zm4.192-6.987h-1.537L11.108.864C10.828.166 9.99-.183 9.291.097c-.699.279-1.047 1.117-.768 1.816l.908 2.305H5.938l.908-2.305c.279-.699-.07-1.537-.769-1.816-.698-.28-1.537.069-1.816.768L2.934 4.218H1.397C.628 4.218 0 4.847 0 5.616v.698c0 .419.279.699.698.699h13.974c.418 0 .697-.279.697-.699v-.698c0-.769-.629-1.398-1.396-1.398z" data-size="15.369 14"/><path d="M9.778.003h-8.4C.621.003 0 .632 0 1.397v11.197c0 .766.621 1.395 1.378 1.395.692.128 2.01-1.496 3.795-3.905.323-.432.596-.257.779-.005 1.983 2.724 3.407 3.997 3.826 3.91a1.39 1.39 0 0 0 1.378-1.395V1.397c0-.765-.621-1.394-1.378-1.394zM4.233 2.207l.629-.09a.265.265 0 0 0 .2-.145l.281-.569a.266.266 0 0 1 .476 0l.279.566a.264.264 0 0 0 .199.145l.629.09a.265.265 0 0 1 .148.451l-.457.446a.265.265 0 0 0-.076.235l.106.626a.265.265 0 0 1-.386.279l-.56-.295a.261.261 0 0 0-.246 0l-.56.295a.266.266 0 0 1-.386-.279l.107-.626a.267.267 0 0 0-.077-.235l-.454-.443a.264.264 0 0 1 .148-.451zm5.378 5.116a.402.402 0 0 1-.399.399H1.944a.401.401 0 0 1-.399-.399v-.126c0-.219.181-.399.399-.399h7.268a.4.4 0 0 1 .399.399v.126zm0-1.822a.401.401 0 0 1-.399.399H1.944a.401.401 0 0 1-.399-.399v-.125c0-.219.181-.399.399-.399h7.268c.219 0 .399.181.399.399v.125z" data-size="11.156 14"/><path d="M3 6.427h.889v1.636H3V6.427zm0 3.272h.889v1.636H3V9.699zm0-6.544h.889v1.636H3V3.155zm2.727 6.544h.889v1.636h-.889V9.699zm0-3.272h.889v1.636h-.889V6.427zm0-3.272h.889v1.636h-.889V3.155zm5.081 5.158h1.739v.89h-1.739v-.89zm0 2.181h1.739v.889h-1.739v-.889zM9.615 14h3.188c.97 0 1.76-.79 1.76-1.76V5.738l-4.948-.001V0H0v14h9.615zm4.059-7.373v5.613c0 .48-.392.871-.871.871H9.615V6.626l4.059.001zM.889 13.111V.889h7.838v12.223H.889v-.001z" data-size="14.563 14"/><path d="M5.603 8.352l-.032 1.62 1.564-.423 5.786-7.406L11.389.946 5.603 8.352zM12.897.068c-.261-.204-.909.112-.909.112l-.4.511 1.532 1.197.399-.511s.15-.705-.111-.91l-.511-.399zM0 14h12.103V4.446l-1.274 1.605v6.675H1.274V3.172H8.6l.955-1.274H0V14z" data-size="13.563 14"/><path d="M4.44 12.832l7.482-7.48L8.648 2.08l-7.48 7.48 3.272 3.272zm-.47.467L0 14l.7-3.973L3.97 13.3zm8.42-8.416l1.4-1.403c.47-.467 0-.937 0-.937L11.458.208s-.47-.47-.938 0L9.115 1.61l3.273 3.274z" data-size="14 14"/><path d="M9.334 0C4.179 0 0 6.909 0 6.909S4.179 14 9.334 14c5.154 0 9.332-7.091 9.332-7.091S14.488 0 9.334 0zm0 11.667a4.667 4.667 0 1 1 0-9.334 4.667 4.667 0 0 1 0 9.334zm0-6.991a2.334 2.334 0 1 1-.003 4.667 2.334 2.334 0 0 1 .003-4.667z" data-size="18.666 14"/><path d="M.307 4.48l7.544 3.644c.196.093.459.143.717.143s.521-.05.719-.143L16.83 4.48c.396-.191.396-.503 0-.695L9.287.143C9.09.049 8.826 0 8.568 0s-.521.049-.717.143L.307 3.785c-.397.193-.397.504 0 .695zM16.83 6.652s-1.377-.664-1.561-.754c-.182-.089-.232-.084-.424.005S9.281 8.587 9.281 8.587a1.734 1.734 0 0 1-.717.142c-.26 0-.521-.049-.718-.143 0 0-5.229-2.523-5.476-2.644-.266-.128-.342-.128-.583-.012-.249.121-1.49.717-1.49.717-.396.192-.396.504 0 .696l7.544 3.643c.196.094.459.143.719.143.258 0 .521-.049.717-.143l7.545-3.643c.405-.187.405-.499.008-.691zm0 2.868l-1.561-.754c-.182-.089-.232-.085-.424.005-.191.089-5.559 2.688-5.559 2.688-.201.093-.461.143-.719.143s-.521-.05-.717-.143c0 0-5.23-2.524-5.476-2.645-.266-.128-.342-.128-.582-.012l-1.49.718c-.396.191-.396.503 0 .695l7.544 3.643c.197.097.459.142.718.142.258 0 .521-.049.717-.143l7.545-3.643c.401-.192.401-.503.004-.694z" data-size="17.127 14"/><path d="M0 0h10v14l-5-3-5 3V0z" vector-effect="non-scaling-stroke" data-size="10 14"/><path d="M2.282 2.868h6.414v.369H2.282v-.369zm0 1.357h6.414v.37H2.282v-.37zm0 1.48h6.414v.37H2.282v-.37zm0 1.357h6.414v.37H2.282v-.37zm0 1.48h6.414v.37H2.282v-.37zM9.991 0H1.11C.498 0 0 .498 0 1.11v11.78C0 13.502.498 14 1.11 14h7.154a2.84 2.84 0 0 0 2.837-2.837V1.11A1.11 1.11 0 0 0 9.991 0zM.74 12.89V1.11a.37.37 0 0 1 .37-.37h8.881a.37.37 0 0 1 .37.37v9.528H7.586v2.621H1.11a.369.369 0 0 1-.37-.369zm7.586.367v-1.878h2.024a2.098 2.098 0 0 1-2.024 1.878z" data-size="11.102 14"/><path d="M4.13 5.67l-.98.98L6.3 9.8l7-7-.98-.979L6.3 7.84 4.13 5.67zM12.6 7c0 3.08-2.52 5.6-5.6 5.6S1.4 10.08 1.4 7 3.92 1.4 7 1.4c.56 0 1.05.07 1.54.21L9.66.49C8.819.21 7.91 0 7 0 3.15 0 0 3.15 0 7s3.15 7 7 7 7-3.15 7-7h-1.4z" data-size="14 14"/><path d="M15.842 14h-14A1.844 1.844 0 0 1 0 12.158V1.842C0 .827.827 0 1.842 0h14c1.016 0 1.842.827 1.842 1.842v10.316A1.844 1.844 0 0 1 15.842 14zM1.842.737c-.609 0-1.105.496-1.105 1.105v10.316c0 .609.496 1.104 1.105 1.104h14c.609 0 1.105-.495 1.105-1.104V1.842c0-.609-.496-1.105-1.105-1.105h-14zm15.474 3.684H.369a.369.369 0 1 1 0-.737h16.948a.368.368 0 0 1-.001.737zM2.948 1.474a.737.737 0 1 1 0 1.474.737.737 0 0 1 0-1.474zm2.21 0a.737.737 0 1 1 0 1.474.737.737 0 0 1 0-1.474zm2.211 0a.737.737 0 1 1 0 1.474.737.737 0 0 1 0-1.474z" data-size="17.684 14"/><path d="M7.575 5.091a2.552 2.552 0 0 1-2.557 2.546 2.552 2.552 0 0 1-2.557-2.546 2.55 2.55 0 0 1 2.557-2.545 2.55 2.55 0 0 1 2.557 2.545m2.654 0C10.229 2.279 7.938 0 5.114 0S0 2.279 0 5.091c0 1.236.443 2.37 1.18 3.252L5.119 14l3.997-5.74c.144-.179.275-.367.394-.565l.04-.058h-.007c.436-.75.686-1.618.686-2.546" data-size="10.229 14"/></svg>