<svg xmlns="http://www.w3.org/2000/svg" viewBox="0 0 240 240"><path d="M120 .4C53.9.4.4 53.9.4 120S53.9 239.6 120 239.6 239.6 186.1 239.6 120 186.1.4 120 .4zm0 222.2c-56.7 0-102.7-45.9-102.7-102.6S63.2 17.4 120 17.4c56.7 0 102.6 45.9 102.6 102.6S176.7 222.6 120 222.6z"/><path d="M184.9 115.4c-2.2 2.2-5.4 3.4-8.4 3.4-3.1 0-6.1-1.2-8.5-3.6l-36.1-37v109.2c0 6.6-5.4 11.9-11.9 11.9s-11.9-5.4-11.9-11.9V78.2l-36.1 37c-4.6 4.8-12.2 4.8-16.9.1-4.8-4.6-4.8-12.1-.1-16.9l50.4-51.6c3.7-3.9 8.8-6.1 14-6.3h1.4c5.2.1 10.3 2.4 14 6.3l50.4 51.6c4.4 4.7 4.4 12.4-.3 17z"/></svg>