<svg xmlns="http://www.w3.org/2000/svg" width="14" height="14" viewBox="0 0 14 14">
	<g id="share" data-size="14 14">
		<path d="M11.096,8.365c-0.823,0-1.559,0.367-2.066,0.945L5.565,7.578C5.6,7.385,5.618,7.21,5.618,7 S5.6,6.615,5.565,6.422L9.029,4.69c0.508,0.578,1.243,0.945,2.066,0.945c1.504,0,2.729-1.225,2.729-2.73 c0-1.505-1.226-2.73-2.729-2.73c-1.506,0-2.73,1.225-2.73,2.73c0,0.193,0.018,0.385,0.053,0.578L4.953,5.215 C4.445,4.638,3.71,4.27,2.888,4.27C1.4,4.27,0.175,5.495,0.175,7S1.4,9.73,2.905,9.73c0.823,0,1.558-0.368,2.065-0.945l3.465,1.732 C8.4,10.71,8.383,10.885,8.383,11.096c0,1.504,1.225,2.729,2.729,2.729s2.713-1.226,2.713-2.729 C13.825,9.59,12.6,8.365,11.096,8.365z M11.096,1.54c0.752,0,1.364,0.612,1.364,1.365c0,0.753-0.612,1.365-1.364,1.365 c-0.754,0-1.365-0.612-1.365-1.365C9.73,2.152,10.342,1.54,11.096,1.54z M2.905,8.365C2.152,8.365,1.54,7.752,1.54,7 c0-0.752,0.612-1.365,1.365-1.365C3.658,5.635,4.27,6.248,4.27,7C4.27,7.752,3.658,8.365,2.905,8.365z M11.096,12.46 c-0.754,0-1.365-0.612-1.365-1.364c0-0.754,0.611-1.365,1.365-1.365c0.752,0,1.364,0.611,1.364,1.365 C12.46,11.848,11.848,12.46,11.096,12.46z"/>
	</g>
	<g id="twitter" data-size="17 14">
		<path d="M15,2.2c0.8-0.5,1.3-1.1,1.5-2c-0.7,0.4-1.4,0.7-2.2,0.8C13.6,0.4,12.8,0,11.8,0S10,0.3,9.3,1 c-0.7,0.7-1,1.5-1,2.5c0,0.3,0,0.5,0.1,0.8C7,4.3,5.6,3.9,4.3,3.3C3.1,2.6,2,1.7,1.2,0.6C0.9,1.2,0.7,1.8,0.7,2.4 c0,0.6,0.1,1.1,0.4,1.7C1.4,4.6,1.8,5,2.3,5.4c-0.6,0-1.1-0.2-1.6-0.4v0c0,0.8,0.3,1.6,0.8,2.3c0.5,0.6,1.2,1,2,1.2 C3.2,8.5,2.9,8.6,2.6,8.6c-0.2,0-0.4,0-0.7-0.1c0.2,0.7,0.6,1.3,1.2,1.8s1.3,0.7,2,0.7c-1.3,1-2.7,1.5-4.3,1.5c-0.3,0-0.6,0-0.8-0.1 C1.6,13.5,3.4,14,5.4,14c1.2,0,2.4-0.2,3.5-0.6c1.1-0.4,2-0.9,2.8-1.6c0.8-0.7,1.4-1.5,2-2.3c0.6-0.8,1-1.8,1.2-2.7 c0.3-0.9,0.4-1.9,0.4-2.8c0-0.2,0-0.3,0-0.5C15.9,3,16.5,2.4,17,1.7C16.3,1.9,15.7,2.1,15,2.2z"/>
	</g>
	<g id="facebook" data-size="6.5 14">
		<path d="M4.3,3.4c0-0.2,0-0.3,0-0.4c0-0.1,0.1-0.2,0.1-0.3c0.1-0.1,0.1-0.1,0.3-0.2c0.1-0.1,0.3-0.1,0.5-0.1h1.2V0	H4.5C3.5,0,2.7,0.2,2.2,0.8C1.7,1.3,1.4,2.1,1.4,3.1v1.5H0V7h1.4v7h2.9V7h1.9l0.3-2.4H4.3V3.4z"/>
	</g>
	<g id="instagram" data-size="14 14">
		<path d="M12.3,12.2c-0.1,0.1-0.3,0.2-0.4,0.2H2.1c-0.2,0-0.3-0.1-0.4-0.2c-0.1-0.1-0.2-0.3-0.2-0.4V5.9h1.3 C2.7,6.3,2.7,6.7,2.7,7.1c0,1.2,0.4,2.1,1.3,3c0.9,0.8,1.9,1.2,3.1,1.2c0.8,0,1.5-0.2,2.2-0.6c0.7-0.4,1.2-0.9,1.6-1.5 c0.4-0.6,0.6-1.3,0.6-2.1c0-0.4-0.1-0.8-0.2-1.2h1.2v5.9C12.4,12,12.4,12.1,12.3,12.2z M9,8.9C8.4,9.4,7.8,9.7,7,9.7 c-0.8,0-1.4-0.3-2-0.8C4.5,8.4,4.2,7.7,4.2,7c0-0.7,0.3-1.4,0.8-1.9c0.5-0.5,1.2-0.8,2-0.8c0.8,0,1.4,0.3,2,0.8 C9.6,5.6,9.8,6.2,9.8,7C9.8,7.7,9.6,8.4,9,8.9z M12.2,4.1c-0.1,0.1-0.3,0.2-0.4,0.2h-1.6c-0.2,0-0.3-0.1-0.4-0.2S9.6,3.9,9.6,3.7 V2.2c0-0.2,0-0.3,0.2-0.4s0.3-0.2,0.4-0.2h1.6c0.2,0,0.3,0.1,0.4,0.2s0.2,0.3,0.2,0.4v1.5C12.4,3.9,12.4,4,12.2,4.1z M13.5,0.5 C13.1,0.2,12.7,0,12.2,0H1.8C1.3,0,0.9,0.2,0.5,0.5S0,1.3,0,1.8v10.4c0,0.5,0.2,0.9,0.5,1.3S1.3,14,1.8,14h10.4 c0.5,0,0.9-0.2,1.3-0.5s0.5-0.8,0.5-1.3V1.8C14,1.3,13.8,0.9,13.5,0.5z"/>
	</g>
	<g id="pinterest" data-size="11 14.075">
		<path d="M5.8,0C2,0,0,2.7,0,5c0,1.4,0.5,2.6,1.7,3.1c0.2,0.1,0.4,0,0.4-0.2c0-0.1,0.1-0.5,0.2-0.6 C2.3,7,2.3,7,2.1,6.8C1.8,6.4,1.6,5.9,1.6,5.2c0-2,1.5-3.9,4-3.9C7.8,1.4,9,2.7,9,4.5c0,2.3-1,4.3-2.6,4.3C5.6,8.7,4.9,8,5.1,7.2 c0.2-1,0.7-2.1,0.7-2.9c0-0.7-0.4-1.2-1.1-1.2C3.9,3.1,3.2,4,3.2,5.2c0,0.8,0.3,1.3,0.3,1.3s-0.9,3.7-1,4.4c-0.3,1.3,0,2.9,0,3.1 c0,0.1,0.1,0.1,0.2,0c0.1-0.1,1.1-1.4,1.5-2.6C4.1,11,4.6,9.1,4.6,9.1c0.3,0.5,1.1,1,2,1c2.6,0,4.4-2.4,4.4-5.5C11,2.2,9,0,5.8,0z"/>
	</g>
	<g id="vimeo" data-size="15.999 13.991">
		<path d="M15.9,3.4c0.3-1.5-0.1-2.5-1-3.1c-0.9-0.5-2-0.5-3.2,0.2c-1.4,0.7-2.2,1.8-2.5,3.3c0.9-0.5,1.6-0.5,2,0 c0.4,0.5,0.4,1.3-0.1,2.1c-1,1.9-1.8,2.9-2.3,2.9c-0.1,0-0.2-0.1-0.3-0.2C8.4,8.6,8.3,8.3,8.2,8C8,7.7,8,7.4,7.9,7.1 C7.8,6.8,7.7,6.3,7.5,5.7C7.4,5.4,7.3,5,7.3,4.5C7.2,4,7.1,3.6,7.1,3.2C7,2.8,6.9,2.4,6.8,2C6.7,1.5,6.6,1.2,6.4,0.9 C6.2,0.7,6,0.5,5.8,0.3C5.5,0.1,5.2,0.1,4.8,0.2C4.2,0.3,3.5,0.7,2.6,1.4C1.8,2,1.1,2.5,0.8,2.9C0.5,3.3,0.2,3.6,0,3.8l0.7,0.9 L1,4.4c0.3-0.2,0.5-0.3,0.8-0.4C2,4,2.3,4,2.5,4.2C2.6,4.3,3.1,5.7,3.8,8c0.7,2.4,1.2,3.8,1.4,4.2c0.2,0.4,0.5,0.8,0.8,1.1 c0.3,0.3,0.7,0.5,1.2,0.6c0.5,0.1,0.9,0,1.4-0.3c1.2-0.9,2.7-2.2,4.4-4.2C14.5,7.6,15.5,5.6,15.9,3.4"/>
	</g>
	<g id="googleplus" data-size="21 14">
		<path d="M13.584,5.688c0.088,0.468,0.136,0.958,0.136,1.47C13.72,11.156,11.043,14,7,14c-3.868,0-7-3.133-7-7s3.132-7,7-7 c1.891,0,3.469,0.695,4.682,1.824L9.708,3.798V3.793C8.973,3.093,8.041,2.734,7,2.734c-2.31,0-4.187,1.951-4.187,4.261 S4.69,11.262,7,11.262c2.096,0,3.521-1.199,3.815-2.844H7v-2.73H13.584z M18.813,6.125V3.938h-1.75v2.188h-2.188v1.75h2.188v2.188 h1.75V7.875H21v-1.75H18.813z"></path>
	</g>
	<g id="stumbleupon" data-size="18 14">
		<path d="M9.95,4.11c0-0.54-0.43-0.97-0.95-0.97c-0.53,0-0.95,0.43-0.95,0.97l0,5.85C8.01,12.2,6.23,14,4.02,14C1.8,14,0,12.17,0,9.9 c0-0.03,0-2.54,0-2.54h3.08v2.51c0,0.54,0.43,0.97,0.95,0.97c0.53,0,0.95-0.43,0.95-0.97V3.95C5.06,1.75,6.83,0,9,0 c2.18,0,3.95,1.77,4.02,3.97v1.3l-1.83,0.56L9.95,5.24V4.11L9.95,4.11z M14.92,7.36v2.63c0,0.53-0.43,0.97-0.95,0.97 c-0.53,0-0.95-0.43-0.95-0.97V7.41l-1.83,0.56L9.95,7.38v2.55C9.97,12.18,11.77,14,13.98,14C16.2,14,18,12.17,18,9.9 c0-0.03,0-2.54,0-2.54H14.92L14.92,7.36z"></path>
	</g>
	<g id="linkedin" data-size="14 14">
		<path d="M0.227,4.648h2.908V14H0.227V4.648z M1.687,0c0.929,0,1.686,0.757,1.686,1.687c0,0.929-0.757,1.686-1.686,1.686 C0.751,3.373,0,2.616,0,1.687C0,0.757,0.751,0,1.687,0 M4.941,4.648h2.784v1.282h0.037c0.388-0.735,1.335-1.51,2.751-1.51 C13.455,4.421,14,6.357,14,8.876V14h-2.902V9.454c0-1.087-0.016-2.481-1.508-2.481c-1.514,0-1.742,1.184-1.742,2.4V14H4.946 L4.941,4.648L4.941,4.648z"></path>
	</g>
	<g id="heart" data-size="15 14">
		<path d="M7.504,14C-0.305,7.809-0.02,5.619,0.007,3.801C0.032,2.101,1.406,0,3.705,0s3.698,2.5,3.698,2.5 S8.902,0,11.201,0s3.798,2.101,3.798,3.801C14.999,5.601,15.198,7.801,7.504,14"/>
	</g>
	<g id="heart-2" data-size="14.727 14">
		<path d="M10.612,0C9.217,0,7.956,0.731,7.369,1.871C6.782,0.731,5.505,0,4.109,0C1.928,0-0.997,1.758,0.335,6.555
	C1.857,11.244,7.368,14,7.368,14s5.503-2.754,7.025-7.445C15.726,1.758,12.793,0,10.612,0z"/>
	</g>
	<g id="heart-3" data-size="16.332 14">
		<path d="M15.166 4.266c0-.492-.066-.927-.195-1.303-.131-.377-.297-.676-.502-.898a2.404 2.404 0 0 0-.742-.542 3.28 3.28 0 0 0-.857-.282c-.279-.049-.576-.073-.893-.073s-.656.077-1.021.232a4.691 4.691 0 0 0-1.006.583c-.309.233-.571.452-.79.656s-.402.39-.547.561a.549.549 0 0 1-.447.2.547.547 0 0 1-.446-.201 7.14 7.14 0 0 0-.547-.561 10.968 10.968 0 0 0-.788-.656 4.699 4.699 0 0 0-1.008-.583 2.615 2.615 0 0 0-1.021-.232c-.316 0-.613.024-.893.073a3.25 3.25 0 0 0-.856.282c-.292.14-.539.321-.743.542s-.37.521-.501.898a3.965 3.965 0 0 0-.196 1.304c0 1.021.568 2.1 1.705 3.236l5.295 5.103 5.287-5.094c1.142-1.143 1.712-2.224 1.712-3.245zm1.166 0c0 1.343-.695 2.71-2.086 4.102l-5.679 5.469a.553.553 0 0 1-.401.163.548.548 0 0 1-.4-.164L2.078 8.35a3.08 3.08 0 0 1-.251-.238 9.67 9.67 0 0 1-.505-.597 7.814 7.814 0 0 1-.62-.889 5.514 5.514 0 0 1-.488-1.103A3.98 3.98 0 0 1 0 4.266C0 2.929.386 1.884 1.157 1.13 1.93.377 2.996 0 4.356 0c.377 0 .762.065 1.154.196.392.131.756.307 1.094.528.337.222.627.43.87.624.243.195.474.402.692.62.22-.218.45-.425.693-.62.243-.193.534-.402.871-.623a4.628 4.628 0 0 1 1.094-.528A3.592 3.592 0 0 1 11.977 0c1.361 0 2.428.377 3.199 1.13s1.156 1.799 1.156 3.136z" />
	</g>
	<g id="logout" data-size="16.401 14">
		<path d="M12.255,10.115v-2.24H7v-1.75h5.254V3.884l4.146,3.089L12.255,10.115z M8.798,9.898 C8.776,9.975,8.75,10.051,8.75,10.135v2.115h-7V1.75h7v2.114c0,0.084,0.026,0.159,0.048,0.236h1.654 C10.476,4.023,10.5,3.948,10.5,3.864V0.875C10.5,0.391,10.109,0,9.625,0h-8.75C0.392,0,0,0.391,0,0.875v12.25 C0,13.607,0.392,14,0.875,14h8.75c0.484,0,0.875-0.393,0.875-0.875v-2.99c0-0.084-0.024-0.16-0.048-0.236H8.798z"/>
	</g>
	<g id="exit" data-size="21 14">
		<path d="M7,0v4.136h0.653v-3.5h12.693v12.727H7.653v-3.5H7V14h14V0H7z M10.391,3.75l0.45-0.45l3.7,3.7l-3.7,3.699l-0.45-0.449 l2.934-2.933H0V6.682h13.322L10.391,3.75z"/>
	</g>
	<g id="download" data-size="16 14">
		<path d="M4.439,5.175H7V0h2v5.175h2.561L8.029,9.914L4.439,5.175z M14,7.691V12H2V7.691H0V13c0,0.553,0.447,1,1,1h14 c0.553,0,1-0.447,1-1V7.691H14z"/>
	</g>
	<g id="search" data-size="14 14">
		<path d="M14,12.383l-2.73-2.73c0.678-0.99,1.078-2.188,1.078-3.479C12.348,2.77,9.578,0,6.174,0 C2.77,0,0,2.77,0,6.173c0,3.405,2.77,6.174,6.174,6.174c1.29,0,2.486-0.398,3.478-1.078l2.73,2.73L14,12.383z M1.759,6.173 c0-2.434,1.98-4.415,4.415-4.415c2.433,0,4.414,1.98,4.414,4.415s-1.98,4.415-4.414,4.415C3.739,10.588,1.759,8.607,1.759,6.173"/>
	</g>
	<g id="link" data-size="22.24 14">
		<path d="M13.84,14V9.801C8.492,8.463,4.42,9.041,0.408,12.144c-0.05,0.038-0.101,0.078-0.15,0.117 c-0.137,0.104-0.192,0.103-0.226,0.077c-0.035-0.027-0.055-0.066,0.014-0.234c0.092-0.228,0.196-0.445,0.298-0.658 C3.208,5.443,7.902,4.2,13.84,4.2V0l8.4,7L13.84,14z"/>
	</g>
	<g id="link-2" data-size="28 14">
		<path d="M14.036,3.5H14l0,0C14.015,3.5,14.021,3.5,14.036,3.5z M22.203,0h-3.536c0,0,1.896,1.239,2.304,3.5h1.196h0.036
	c1.283,0,2.297,1.014,2.297,2.297V8.13c0,1.283-1.014,2.37-2.297,2.37h-8.167c-1.283,0-2.369-1.087-2.369-2.37V5.833h-3.5V8.13
	c0,0.839,0.182,1.641,0.503,2.37c0.919,2.057,2.982,3.5,5.366,3.5h8.167C25.426,14,28,11.354,28,8.13V5.797
	C28,2.574,25.426,0,22.203,0z M19.366,3.5C18.484,1.437,16.442,0,14.036,0H5.87C2.646,0,0,2.574,0,5.797V8.13
	C0,11.354,2.646,14,5.87,14h3.463c0,0-1.881-1.239-2.34-3.5H5.87c-1.283,0-2.37-1.087-2.37-2.37V5.797C3.5,4.514,4.587,3.5,5.87,3.5
	H14h0.036c1.283,0,2.297,1.014,2.297,2.297V8.13c0,0.015,0,0.022,0,0.037h3.5c0-0.015,0-0.022,0-0.037V5.797
	C19.833,4.98,19.666,4.2,19.366,3.5z"/>
	</g>
	<g id="rss" data-size="14.1 14">
		<path d="M3.3,10.7c-0.4-0.4-0.8-0.6-1.4-0.6c-0.6,0-1,0.2-1.4,0.6C0.2,11.1,0,11.6,0,12.1c0,0.5,0.2,1,0.6,1.4	C0.9,13.8,1.4,14,1.9,14c0.5,0,1-0.2,1.4-0.6c0.3-0.4,0.6-0.8,0.6-1.4C3.8,11.6,3.6,11.1,3.3,10.7z M8.1,10.3c-0.5-1-1-1.8-1.8-2.6 C5.5,6.9,4.7,6.3,3.7,5.9c-1-0.5-2-0.7-3-0.8H0.6c-0.2,0-0.3,0-0.4,0.2C0.1,5.4,0,5.5,0,5.7v1.4c0,0.1,0,0.3,0.2,0.4	c0.1,0.1,0.2,0.2,0.4,0.2c1.5,0.1,2.8,0.7,3.9,1.8c1.1,1.1,1.7,2.4,1.8,3.9c0,0.2,0.1,0.3,0.2,0.4C6.6,13.9,6.8,14,6.9,14h1.4 c0.2,0,0.3-0.1,0.5-0.2c0.1-0.1,0.2-0.3,0.2-0.5C8.8,12.3,8.6,11.2,8.1,10.3z M12.8,8.3c-0.7-1.6-1.7-3-2.9-4.2 C8.6,2.9,7.2,1.9,5.6,1.2C4.1,0.5,2.4,0.1,0.7,0h0C0.5,0,0.3,0,0.2,0.2C0.1,0.3,0,0.5,0,0.6v1.4c0,0.1,0.1,0.3,0.2,0.4 c0.1,0.1,0.2,0.2,0.4,0.2c1.4,0.1,2.8,0.4,4.1,1C6,4.3,7.1,5,8,6C8.9,6.9,9.7,8,10.3,9.3s0.9,2.6,1,4.1c0,0.1,0.1,0.3,0.2,0.4 c0.1,0.1,0.3,0.2,0.5,0.2h1.4c0.2,0,0.3-0.1,0.5-0.2c0.1-0.1,0.2-0.3,0.2-0.5C13.9,11.6,13.5,9.9,12.8,8.3z"/>
	</g>
	<g id="grid" data-size="13 13">
		<path d="M0,0h3v3H0V0z M5,3h3V0H5V3z M10,3h3V0h-3V3z M0,8h3V5H0V8z M5,8h3V5H5V8z M10,8h3V5h-3V8z M0,13h3v-3H0V13z M5,13h3v-3H5V13z M10,13h3v-3h-3V13z"/>
	</g>
	<g id="grid-2cols" data-size="14 13">
		<path d="M0,0h6v3H0V0z M0,8h6V5H0V8z M0,13h6v-3H0V13z M8,0h6v3H8V0z M8,8h6V5H8V8z M8,13h6v-3H8V13z"/>
	</g>
	<g id="grid-mobile" data-size="13 13">
		<path d="M0,0h1v13H0V0z M12,0h1v13h-1V0z M3,0h7v13H3V0z"/>
	</g>
	<g id="clock" data-size="14 14">
		<path d="M7.001,0C3.14,0,0,3.14,0,7.001C0,10.86,3.14,14,7.001,14C10.86,14,14,10.86,14,7.001 C14,3.14,10.86,0,7.001,0 M7.001,12.25c-2.895,0-5.251-2.355-5.251-5.249c0-2.896,2.356-5.251,5.251-5.251 c2.895,0,5.249,2.355,5.249,5.251C12.25,9.895,9.896,12.25,7.001,12.25 M6.475,6.562C6.527,6.505,6.69,6.35,6.69,6.35l2.414-2.3 l0.966,1.013l-2.423,2.31v2.479h-1.4V7.363c0,0-0.001-0.219,0-0.292C6.25,7,6.245,6.903,6.306,6.785 C6.35,6.7,6.409,6.633,6.475,6.562"/>
	</g>
	<g id="calendar" data-size="14 14">
		<path d="M12.857,1.413h-1.68V0h-1.4v1.413h-5.6V0h-1.4v1.413H1.12C0.501,1.413,0,1.915,0,2.533V12.88 C0,13.498,0.501,14,1.12,14h11.737c0.619,0,1.121-0.502,1.121-1.12V2.533C13.978,1.915,13.476,1.413,12.857,1.413z M12.578,12.6 h-11.2v-7h11.2V12.6z M12.578,4.2h-11.2V2.8h11.2V4.2z M6.417,7h1.4v1.4h-1.4V7z M9.216,7h1.4v1.4h-1.4V7z M6.417,9.8h1.4v1.4h-1.4 V9.8z M3.617,9.8h1.4v1.4h-1.4V9.8z"/>
	</g>
	<g id="menu-main" data-size="15 13">
		<path d="M0,5h15v3H0V5z M0,13h11.948v-3H0V13z M0,3h9.092V0H0V3z"/>
	</g>
	<g id="menu-user" data-size="15 13">
		<path d="M4.862,0H15v3H4.862V0z M0,3h2.596V0H0V3z M0,8h2.596V5H0V8z M0,13h2.596v-3H0V13z M4.862,8h8.075V5H4.862V8 z M4.862,13h6.145v-3H4.862V13z"/>
	</g>
	<g id="settings" data-size="14 14">
		<path d="M7.011,5.569C7.794,5.569,8.43,6.21,8.43,7c0,0.791-0.636,1.432-1.419,1.432C6.227,8.432,5.592,7.79,5.592,7 C5.592,6.209,6.227,5.569,7.011,5.569 M12.115,8.216c-0.113,0.485-0.303,0.938-0.537,1.361l1.105,1.641l-1.462,1.465l-1.48-1.171 c-0.435,0.268-0.907,0.471-1.411,0.604L8.045,14H5.977l-0.219-1.863c-0.501-0.125-0.969-0.325-1.402-0.585L2.8,12.683l-1.462-1.465 l1.107-1.636C2.22,9.177,2.041,8.746,1.927,8.284L0,8.036l0.021-2.071l1.918-0.292c0.122-0.47,0.305-0.909,0.542-1.32L1.338,2.783 L2.8,1.319L4.31,2.474c0.417-0.255,0.868-0.447,1.348-0.577L5.977,0h2.068l0.344,1.904C8.864,2.035,9.313,2.228,9.726,2.48 l1.496-1.161l1.462,1.464l-1.126,1.604c0.231,0.406,0.413,0.844,0.531,1.309L14,5.965v2.071L12.115,8.216z M9.821,7.001 c0-1.565-1.262-2.834-2.811-2.834C5.461,4.167,4.2,5.438,4.2,7.001c0,1.563,1.262,2.832,2.811,2.832 C8.56,9.833,9.821,8.562,9.821,7.001"/>
	</g>
	<g id="reload" data-size="14 14">
		<path d="M12.376,9.037c0.948-2.483,0.045-5.332-2.164-6.811C7.324,0.291,3.48,1.327,1.903,4.299l-1.377-0.71
		C0.45,3.549,0.36,3.624,0.375,3.712l0.619,3.911c0.011,0.066,0.08,0.101,0.141,0.072l3.544-1.76
		c0.082-0.04,0.088-0.157,0.014-0.196L3.318,5.03c1.117-2.084,3.773-2.844,5.836-1.597c1.775,1.07,2.494,3.339,1.661,5.237
		c-0.88,2.012-3.127,2.951-5.121,2.297c-0.369-0.121-0.773,0.049-0.951,0.392c-0.22,0.428-0.013,0.96,0.444,1.11
		C8.026,13.409,11.241,12.005,12.376,9.037z"/>
	</g>
	<g id="card" data-size="20 14">
		<path d="M18.26,14H1.74C0.78,14,0,13.22,0,12.25V1.75C0,0.78,0.78,0,1.74,0h16.52C19.22,0,20,0.78,20,1.75v10.5 C20,13.22,19.22,14,18.26,14z M0.87,5.69h18.26V3.94H0.87V5.69z M19.13,1.75c0-0.48-0.39-0.88-0.87-0.88H1.74 c-0.48,0-0.87,0.39-0.87,0.88v1.31h18.26V1.75z M19.13,6.56H0.87v5.69c0,0.48,0.39,0.88,0.87,0.88h16.52c0.48,0,0.87-0.39,0.87-0.88 V6.56z M10.87,9.19H9.13c-0.24,0-0.44-0.2-0.44-0.44s0.19-0.44,0.44-0.44h1.74c0.24,0,0.44,0.2,0.44,0.44S11.11,9.19,10.87,9.19z  M6.96,9.19H3.04c-0.24,0-0.43-0.2-0.43-0.44S2.8,8.31,3.04,8.31h3.91c0.24,0,0.43,0.2,0.43,0.44S7.2,9.19,6.96,9.19z M3.04,10.5 h2.61c0.24,0,0.43,0.2,0.43,0.44s-0.19,0.44-0.43,0.44H3.04c-0.24,0-0.43-0.2-0.43-0.44S2.8,10.5,3.04,10.5z"/>
	</g>
	<g id="style-dark" data-size="20 14">
		<path d="M20,1H0V0h20V1z M20,13H0v1h20V13z M1,1H0v12h1V1z M20,1h-8v12h8V1z"/>
	</g>
	<g id="user" data-size="12.55 14">
		<path d="M6.276,7.724c3.335,0,5.916,2.361,6.273,5.742c0.015,0.136-0.028,0.271-0.12,0.374 C12.337,13.941,12.206,14,12.069,14H0.483c-0.138,0-0.269-0.059-0.36-0.16c-0.091-0.103-0.134-0.238-0.12-0.374 C0.361,10.085,2.941,7.724,6.276,7.724 M6.276,6.759c1.865,0,3.379-1.514,3.379-3.379C9.655,1.513,8.141,0,6.276,0 C4.409,0,2.897,1.512,2.897,3.38C2.897,5.246,4.409,6.759,6.276,6.759"/>
	</g>
	<g id="user-2" data-size="12.833 14">
		<path d="M12.833,11.64c0,0.729-0.222,1.305-0.665,1.727C11.724,13.789,11.135,14,10.399,14H2.434
	c-0.735,0-1.325-0.211-1.769-0.634C0.222,12.944,0,12.368,0,11.64c0-0.322,0.011-0.637,0.031-0.943
	c0.021-0.308,0.064-0.639,0.128-0.994S0.304,9.018,0.4,8.714C0.498,8.41,0.629,8.113,0.793,7.825
	C0.957,7.536,1.146,7.29,1.357,7.087C1.57,6.883,1.83,6.721,2.137,6.599c0.308-0.121,0.646-0.182,1.017-0.182
	c0.055,0,0.183,0.065,0.383,0.195c0.2,0.131,0.427,0.276,0.679,0.438c0.253,0.161,0.581,0.308,0.984,0.438
	c0.404,0.131,0.81,0.196,1.217,0.196s0.813-0.065,1.217-0.196c0.404-0.13,0.732-0.276,0.984-0.438
	c0.253-0.161,0.479-0.307,0.68-0.438c0.2-0.13,0.328-0.195,0.383-0.195c0.37,0,0.709,0.061,1.016,0.182
	c0.308,0.122,0.567,0.284,0.779,0.488c0.213,0.203,0.401,0.449,0.565,0.738c0.164,0.288,0.295,0.585,0.392,0.889
	c0.098,0.304,0.178,0.633,0.242,0.988c0.063,0.355,0.106,0.687,0.127,0.994C12.822,11.003,12.833,11.317,12.833,11.64z M9.916,3.5
	c0,0.966-0.342,1.791-1.025,2.475S7.383,7,6.416,7C5.45,7,4.625,6.658,3.941,5.975S2.916,4.466,2.916,3.5s0.342-1.791,1.025-2.475
	S5.45,0,6.416,0c0.967,0,1.791,0.342,2.475,1.025S9.916,2.534,9.916,3.5z"/>
	</g>
	<g id="user-tribe" data-size="11 14">
		<path d="M9.424,3.32C8.809,2.745,7.945,2.416,6.959,2.375c0,0,0,0-0.041,0c-0.122,0-0.205,0-0.287,0c-0.123,0-0.206,0-0.329,0 c0,0,0,0-0.041,0C5.234,2.416,4.412,2.745,3.796,3.32c-0.78,0.739-1.232,1.889-1.232,3.327v3.289c0,0.904,0.739,1.643,1.725,1.643 c0.904,0,1.643-0.738,1.643-1.643V8.661l0,0V6.565c0-0.327,0.247-0.575,0.575-0.575c0.329,0,0.573,0.205,0.573,0.534v3.369 c0,1.068-0.285,1.933-0.861,2.424C5.726,12.809,4.987,13.016,4,12.934c-0.821,0-1.437-0.207-1.889-0.657 c-0.534-0.534-0.821-1.354-0.821-2.423v-1.11c0,0,0,0,0-0.042V5.909c0-0.207,0.041-1.192,0.534-2.26 C2.195,2.87,2.77,2.211,3.468,1.76c0.657-0.412,1.807-0.946,3.821-0.617C7.574,1.184,7.822,1.02,7.904,0.732 c0.041-0.288-0.123-0.534-0.412-0.616c-1.766-0.288-3.245-0.041-4.559,0.74C2.03,1.43,1.372,2.211,0.88,3.155 C0.305,4.388,0.264,5.538,0.264,5.867v0.576c0,0,0,0,0,0.041v3.409c0,1.355,0.411,2.424,1.15,3.164 C2.03,13.672,2.893,13.959,3.919,14l0,0l0,0c0.082,0,0.123,0,0.164,0s0.083,0,0.164,0c0.042,0,0.042,0,0.083,0 c1.109,0,1.972-0.328,2.628-0.943c0.779-0.74,1.191-1.85,1.191-3.203v-3.37c0-0.905-0.74-1.603-1.604-1.603 c-0.903,0-1.601,0.738-1.601,1.603v1.849l0,0v1.562c0,0.328-0.288,0.615-0.699,0.615c-0.328,0-0.616-0.287-0.616-0.615V6.606 c0-1.108,0.329-2.013,0.904-2.546c0.493-0.452,1.232-0.698,2.136-0.657c0.903,0,1.602,0.205,2.096,0.657 c0.574,0.534,0.901,1.438,0.901,2.546v3.289c0,0.287,0.246,0.533,0.533,0.533c0.289,0,0.535-0.246,0.535-0.533V6.606 C10.613,5.209,10.203,4.059,9.424,3.32z"/>
	</g>
	<g id="user-pro" data-size="11 14">
		<path d="M9.768,10.396C7.18,9.861,5.906,8.382,5.906,5.876c0-0.248,0-0.452,0-0.452c0-0.289-0.206-0.534-0.493-0.534H5.372 c-0.288,0-0.493,0.205-0.534,0.493c0,0,0,0.205,0,0.534c0,3,1.604,4.931,4.684,5.546c0.289,0.041,0.576-0.123,0.617-0.41 C10.221,10.725,10.016,10.477,9.768,10.396z M10.303,8.053C8.372,7.848,8.331,6.738,8.331,5.669c0-0.123,0-0.286,0-0.41 C8.207,3.411,7.139,2.342,5.454,2.301H5.413c-1.356,0-2.711,0.986-2.752,2.875c0,0.166,0,0.535,0,0.781v0.164 c0,3.411,1.561,5.794,4.726,7.273c0.244,0.123,0.574,0,0.696-0.248c0.124-0.246,0-0.574-0.246-0.697 C5.042,11.134,3.728,9.12,3.728,6.121V5.958c0-0.247,0-0.616,0-0.781c0.041-1.313,0.903-1.89,1.726-1.848 C6.646,3.37,7.221,4.026,7.346,5.342c0,0.123,0,0.246,0,0.369c0.041,1.068,0.082,3.081,2.916,3.409 c0.287,0.041,0.534-0.163,0.575-0.452C10.796,8.341,10.59,8.094,10.303,8.053z M0.194,7.561c0.205,3.532,2.136,5.465,2.958,6.287 c0.206,0.203,0.535,0.203,0.739,0c0.206-0.207,0.206-0.535,0-0.74c-0.739-0.739-2.464-2.467-2.629-5.588 c-0.041-0.699-0.041-1.973,0-2.629c0.165-2.178,1.972-3.78,4.232-3.78c2.302,0,4.15,1.684,4.15,3.739v1.068 c0,0.288,0.246,0.534,0.533,0.534c0.289,0,0.534-0.247,0.534-0.534V4.849C10.63,2.136,8.331,0,5.454,0 C2.661,0,0.358,2.054,0.194,4.766C0.152,5.464,0.152,6.821,0.194,7.561z"/>
	</g>
	<g id="user-int" data-size="11 14">
		<path d="M9.768,10.396C7.18,9.861,5.906,8.382,5.906,5.876c0-0.248,0-0.452,0-0.452c0-0.289-0.206-0.534-0.493-0.534H5.372 c-0.288,0-0.493,0.205-0.534,0.493c0,0,0,0.205,0,0.534c0,3,1.604,4.931,4.684,5.546c0.289,0.041,0.576-0.123,0.617-0.41 C10.221,10.725,10.016,10.477,9.768,10.396z M10.303,8.053C8.372,7.848,8.331,6.738,8.331,5.669c0-0.123,0-0.286,0-0.41 C8.207,3.411,7.139,2.342,5.454,2.301H5.413c-1.356,0-2.711,0.986-2.752,2.875c0,0.166,0,0.535,0,0.781v0.164 c0,3.411,1.561,5.794,4.726,7.273c0.244,0.123,0.574,0,0.696-0.248c0.124-0.246,0-0.574-0.246-0.697 C5.042,11.134,3.728,9.12,3.728,6.121V5.958c0-0.247,0-0.616,0-0.781c0.041-1.313,0.903-1.89,1.726-1.848 C6.646,3.37,7.221,4.026,7.346,5.342c0,0.123,0,0.246,0,0.369c0.041,1.068,0.082,3.081,2.916,3.409 c0.287,0.041,0.534-0.163,0.575-0.452C10.796,8.341,10.59,8.094,10.303,8.053z M0.194,7.561c0.205,3.532,2.136,5.465,2.958,6.287 c0.206,0.203,0.535,0.203,0.739,0c0.206-0.207,0.206-0.535,0-0.74c-0.739-0.739-2.464-2.467-2.629-5.588 c-0.041-0.699-0.041-1.973,0-2.629c0.165-2.178,1.972-3.78,4.232-3.78c2.302,0,4.15,1.684,4.15,3.739v1.068 c0,0.288,0.246,0.534,0.533,0.534c0.289,0,0.534-0.247,0.534-0.534V4.849C10.63,2.136,8.331,0,5.454,0 C2.661,0,0.358,2.054,0.194,4.766C0.152,5.464,0.152,6.821,0.194,7.561z"/>
	</g>
	<g id="user-jury" data-size="11 14">
		<path d="M3.474,7.824c0.247,0.123,0.577,0.041,0.7-0.248C4.298,7.33,4.215,7,3.927,6.877c-1.029-0.535-1.688-1.606-1.688-2.76 c0-1.729,1.4-3.088,3.088-3.088c1.688,0,3.089,1.4,3.089,3.088c0,0.988-0.578,1.895-1.772,2.801 C6.315,7.164,5.286,7.906,5.161,9.225C5.12,9.512,5.327,9.759,5.614,9.8h0.043c0.246,0,0.494-0.206,0.535-0.452 c0.082-0.865,0.782-1.359,1.111-1.605c1.44-1.072,2.142-2.265,2.142-3.625C9.486,1.853,7.633,0,5.368,0 c-2.266,0-4.16,1.853-4.16,4.158C1.208,5.724,2.074,7.123,3.474,7.824z M7.015,4.158c0-0.905-0.74-1.646-1.646-1.646 S3.721,3.253,3.721,4.158c0,0.906,0.741,1.647,1.647,1.647C6.274,5.806,7.015,5.064,7.015,4.158z M4.585,4.158 c0-0.411,0.33-0.74,0.742-0.74c0.41,0,0.74,0.329,0.74,0.74c0,0.412-0.33,0.742-0.74,0.742C4.916,4.9,4.585,4.57,4.585,4.158z  M8.004,9.225C7.715,9.141,7.428,9.266,7.345,9.553C7.304,9.676,7.262,9.759,7.18,9.883c-0.329,0.535-0.946,0.864-1.604,0.864 c-0.659,0-1.318-0.329-1.647-0.864C3.886,9.8,3.804,9.676,3.762,9.553C3.68,9.266,3.392,9.141,3.103,9.225 C2.815,9.307,2.691,9.594,2.774,9.883c0.041,0.164,0.124,0.37,0.247,0.535c0.535,0.823,1.482,1.357,2.512,1.357 c1.029,0,1.978-0.534,2.513-1.357c0.123-0.165,0.205-0.371,0.246-0.535C8.457,9.594,8.291,9.307,8.004,9.225z M10.35,6.383 c-0.287,0-0.535,0.246-0.535,0.535V9.1c0,2.143-1.893,3.871-4.282,3.871c-2.388,0-4.283-1.729-4.283-3.871V8.854 c0-0.289-0.247-0.535-0.535-0.535c-0.288,0-0.535,0.246-0.535,0.535V9.1c0,2.719,2.388,4.9,5.312,4.9 c2.925,0,5.313-2.225,5.313-4.9V6.918C10.887,6.588,10.639,6.383,10.35,6.383z"/>
	</g>
	<g id="user-chief" data-size="11 14">
		<path d="M6.471,5.052c-0.206-0.205-0.535-0.205-0.74,0c-0.205,0.206-0.205,0.533,0,0.739c0.822,0.78,3.038,2.915,3.695,3.529 c0.082,0.082,0.245,0.123,0.37,0.123c0.121,0,0.285-0.041,0.369-0.162c0.205-0.207,0.164-0.534-0.043-0.74 C9.508,7.966,7.25,5.833,6.471,5.052z M2.571,7.803C2.406,7.557,2.283,7.352,2.16,7.145C1.216,5.504,1.626,3.534,3.145,2.097 c0.042-0.041,2.709-2.422,5.583,0.082C8.769,2.22,9.056,2.467,9.262,2.671l0.205,0.206c0.204,0.205,0.532,0.164,0.739-0.041 c0.205-0.206,0.164-0.534-0.041-0.739L9.958,1.892C9.712,1.687,9.426,1.399,9.426,1.399C6.717-0.94,3.761,0.086,2.406,1.358 C0.518,3.123,0.067,5.585,1.257,7.68C1.38,7.925,1.544,8.171,1.709,8.418c0.903,1.355,1.272,2.135-0.123,3.119 c-0.247,0.166-0.288,0.492-0.124,0.74c0.082,0.121,0.247,0.203,0.411,0.203c0.123,0,0.205-0.041,0.287-0.082 C4.459,10.718,3.35,9.033,2.571,7.803z M8.852,10.8C7.703,9.691,6.225,8.337,5.075,7.145C4.13,6.202,4.048,4.97,4.828,4.191 c0.821-0.821,1.93-0.739,2.916,0.246c0.491,0.452,0.86,0.821,1.189,1.108c0.246,0.205,0.41,0.37,0.574,0.533 c0.204,0.206,0.532,0.206,0.737,0c0.207-0.204,0.207-0.533,0-0.738c-0.164-0.123-0.328-0.329-0.574-0.533 C9.344,4.518,8.934,4.149,8.481,3.698c-1.437-1.354-3.16-1.437-4.393-0.206C2.899,4.681,2.981,6.57,4.336,7.925 c1.19,1.231,2.668,2.586,3.817,3.694c0.41,0.369,0.78,0.74,1.067,1.025c0.082,0.084,0.246,0.166,0.368,0.166 c0.123,0,0.289-0.041,0.369-0.166c0.205-0.205,0.205-0.533,0-0.737C9.589,11.537,9.221,11.21,8.852,10.8z M5.526,11.825 c-0.944,0-1.765,0.534-2.134,1.396c-0.123,0.245,0,0.574,0.246,0.696c0.246,0.123,0.575,0,0.698-0.245 c0.205-0.451,0.656-0.779,1.19-0.779c0.494,0,0.986,0.287,1.191,0.779C6.8,13.878,7.004,14,7.209,14c0.084,0,0.125,0,0.207-0.041 c0.244-0.122,0.367-0.41,0.244-0.695C7.291,12.359,6.43,11.825,5.526,11.825z"/>
	</g>
	<g id="medal" data-size="12.39 14">
		<path d="M4.799,10.899c0.035,0.082,0.03,0.177-0.017,0.253L3.15,13.865c-0.047,0.08-0.131,0.13-0.225,0.134H2.914 c-0.088,0-0.172-0.042-0.225-0.113l-0.912-1.257l-1.534-0.194c-0.093-0.013-0.173-0.07-0.214-0.154s-0.037-0.183,0.012-0.263 L1.679,9.29c0.047-0.077,0.126-0.126,0.217-0.134c0.088-0.01,0.176,0.03,0.232,0.099c0.635,0.757,1.514,1.283,2.473,1.483 C4.689,10.757,4.763,10.817,4.799,10.899 M7.587,10.899c-0.035,0.082-0.029,0.177,0.018,0.253l1.631,2.713 c0.049,0.08,0.133,0.13,0.226,0.134h0.013c0.088,0,0.172-0.042,0.225-0.113l0.912-1.257l1.533-0.194 c0.094-0.013,0.174-0.07,0.215-0.154s0.037-0.183-0.012-0.263l-1.64-2.728c-0.046-0.077-0.126-0.126-0.216-0.134 c-0.088-0.01-0.176,0.03-0.233,0.099c-0.635,0.757-1.514,1.283-2.473,1.483C7.697,10.757,7.623,10.817,7.587,10.899 M6.193,0 c2.742,0,4.974,2.248,4.974,5.01c0,2.763-2.232,5.011-4.974,5.011c-2.741,0-4.973-2.248-4.973-5.009C1.22,2.248,3.452,0,6.193,0  M6.193,7.687c1.466,0,2.66-1.202,2.66-2.675c0-1.479-1.193-2.678-2.66-2.678c-1.465,0-2.658,1.201-2.658,2.678 C3.535,6.487,4.728,7.687,6.193,7.687 M6.193,3.75c-0.689,0-1.25,0.563-1.25,1.258c0,0.696,0.561,1.26,1.25,1.26 c0.69,0,1.25-0.563,1.25-1.259S6.883,3.75,6.193,3.75"/>
	</g>
	<g id="books" data-size="15.57 14">
		<path d="M1.593,14H1.182C0.529,14,0,13.472,0,12.818V1.183C0,0.529,0.529,0,1.182,0h0.411 c0.653,0,1.182,0.529,1.182,1.183v11.636C2.775,13.472,2.246,14,1.593,14 M5.654,14c0.653,0,1.182-0.528,1.182-1.182V1.183 C6.836,0.529,6.307,0,5.654,0H5.243C4.59,0,4.061,0.529,4.061,1.183v11.636C4.061,13.472,4.59,14,5.243,14H5.654 M14.859,13.742 c0.598-0.261,0.873-0.956,0.611-1.556L10.836,1.514C10.576,0.916,9.879,0.641,9.281,0.9L8.904,1.064 c-0.6,0.261-0.873,0.956-0.613,1.556l4.635,10.673c0.26,0.598,0.957,0.873,1.557,0.613L14.859,13.742"/>
	</g>
	<g id="gotop" data-size="14 14">
		<path d="M11.3,0L8.7,3.5h1.8v8.8H1.7V1.7H7c0.5,0,0.8-0.4,0.8-0.8C7.8,0.4,7.4,0,7,0H0.8C0.4,0,0,0.4,0,0.8v12.3 C0,13.6,0.4,14,0.8,14h10.5c0.5,0,0.8-0.4,0.8-0.8V3.5H14L11.3,0z M3.8,5.3H8.4v1.2H3.8V5.3z M3.8,8H8.4v1.2H3.8V8zz"/>
	</g>
	<g id="mail" data-size="19.6 14">
		<path d="M12.226,7.678l6.929,5.939C18.902,13.854,18.563,14,18.19,14H1.41 c-0.375,0-0.715-0.145-0.967-0.38l6.933-5.942L9.8,9.8L12.226,7.678z M9.8,8.4L0.446,0.382C0.698,0.146,1.037,0,1.41,0H18.19 c0.375,0,0.715,0.144,0.967,0.379L9.8,8.4z M19.6,12.859L12.835,7.11L19.6,1.226V12.859L19.6,12.859z M0,12.859V1.229L6.766,7.11 L0,12.859L0,12.859z"/>
	</g>
	<g id="mail-2" data-size="21.875 14">
		<path d="M20.121,0H1.753C0.785,0,0,0.783,0,1.745v10.51C0,13.219,0.778,14,1.753,14h18.368 c0.97,0,1.754-0.783,1.754-1.745V1.745C21.875,0.781,21.097,0,20.121,0z M19.688,0.875l-8.75,7.612l-8.75-7.612H19.688z  M1.149,12.887c-0.169-0.161-0.274-0.389-0.274-0.643V1.756c0-0.253,0.106-0.48,0.275-0.641L7.919,7L1.149,12.887z M2.188,13.125 l6.387-5.556l2.363,2.056l2.363-2.056l6.387,5.556H2.188z M21,12.244c0,0.253-0.105,0.48-0.275,0.642L13.956,7l6.771-5.887 C20.896,1.274,21,1.502,21,1.756V12.244z"/>
	</g>
	<g id="photo" data-size="18.667 14">
		<path d="M0,0h18.667v14H0V0z M1.167,1.167v11.667H17.5V1.167H1.167z M2.341,11.698 c0,0,1.213-8.194,3.015-8.194s2.591,5.779,4.039,5.779c1.449,0,1.34-2.258,2.402-2.258c1.062,0,4.712,4.673,4.712,4.673H2.341z  M14.583,5.833c-0.966,0-1.75-0.784-1.75-1.75c0-0.967,0.784-1.75,1.75-1.75c0.967,0,1.75,0.783,1.75,1.75 C16.333,5.05,15.55,5.833,14.583,5.833z"/>
	</g>
	<g id="camera" data-size="17.67 14">
		<path d="M14.711,2.192h-1.863C12.676,0.919,11.588,0,10.182,0H7.484C6.08,0,4.991,0.919,4.82,2.192H2.957 C1.216,2.192,0,3.264,0,4.798v6.245C0,12.672,1.326,14,2.957,14h11.754c1.631,0,2.957-1.328,2.957-2.957V5.148 C17.666,3.518,16.34,2.192,14.711,2.192 M15.918,11.043c0,0.666-0.541,1.207-1.207,1.207H2.957c-0.666,0-1.208-0.541-1.208-1.207 V4.798c0-0.774,0.845-0.857,1.208-0.857l2.717-0.002c0.483-0.002,0.872-0.393,0.872-0.874v-0.52c0-0.548,0.487-0.797,0.938-0.797 h2.698c0.453,0,0.939,0.249,0.939,0.797v0.52c0,0.481,0.389,0.872,0.871,0.874l0.537,0.002h0.002h2.18 c0.666,0,1.207,0.542,1.207,1.207V11.043z M8.835,4.703c-1.737,0-3.148,1.412-3.148,3.148S7.098,11,8.835,11 c1.734,0,3.146-1.412,3.146-3.148S10.569,4.703,8.835,4.703 M8.835,9.602c-0.965,0-1.75-0.785-1.75-1.75 c0-0.963,0.785-1.748,1.75-1.748c0.963,0,1.748,0.785,1.748,1.748C10.583,8.816,9.798,9.602,8.835,9.602"/>
	</g>
	<g id="warning" data-size="14 14">
		<path d="M7,0C3.14,0,0,3.141,0,7.002C0,10.859,3.14,14,7,14c3.861,0,7-3.141,7-6.998C14,3.141,10.861,0,7,0  M7,10.601c-0.455,0-0.824-0.368-0.824-0.824c0-0.455,0.369-0.823,0.824-0.823s0.824,0.368,0.824,0.823 C7.824,10.232,7.456,10.601,7,10.601 M7.824,7.604c0,0.302-0.248,0.55-0.55,0.55H6.726c-0.302,0-0.55-0.248-0.55-0.55V3.948 c0-0.303,0.248-0.55,0.55-0.55h0.548c0.302,0,0.55,0.247,0.55,0.55V7.604z"/>
	</g>
	<g id="question" data-size="14 14">
		<path d="M7,0C3.134,0,0,3.134,0,7s3.134,7,7,7s7-3.134,7-7S10.866,0,7,0z M7.971,11.737H6.364v-1.709h1.606V11.737z M9.936,6.06C9.779,6.404,9.6,6.671,9.399,6.86S8.754,7.352,8.128,7.854C8.054,7.914,7.964,8.12,7.969,8.328 C7.975,8.578,7.958,9,7.953,9H6.375l0.016-0.875c0-0.31,0.034-0.73,0.16-0.908c0.125-0.178,0.311-0.244,0.734-0.572 c0.647-0.497,1.016-1.023,1.016-1.579c0-0.419-0.103-0.752-0.357-0.998c-0.252-0.246-0.57-0.369-0.976-0.369 c-0.938,0-1.488,0.649-1.656,1.948L3.825,5.38c0.091-0.971,0.452-1.733,1.078-2.287C5.53,2.54,6.282,2.263,7.157,2.263 c0.87,0,1.591,0.259,2.161,0.776S10.172,4.2,10.172,4.97C10.172,5.353,10.094,5.716,9.936,6.06z"/>
	</g>
	<g id="trash" data-size="14 14">
		<path d="M13.088,3.091h-2.817c0-0.014,0.007-0.023,0.007-0.036V2.301C10.277,1.032,9.246,0,7.979,0H6.022 C4.754,0,3.724,1.032,3.724,2.301v0.754c0,0.013,0.007,0.022,0.007,0.036H0.912c-0.483,0-0.875,0.391-0.875,0.875 c0,0.483,0.392,0.875,0.875,0.875h0.982V11.7c0,1.269,1.032,2.3,2.3,2.3h5.612c1.268,0,2.3-1.031,2.3-2.3V4.841h0.981 c0.484,0,0.875-0.392,0.875-0.875C13.963,3.481,13.572,3.091,13.088,3.091 M5.818,11.136c0,0.361-0.294,0.655-0.656,0.655 c-0.361,0-0.656-0.294-0.656-0.655V6.106c0-0.362,0.295-0.656,0.656-0.656c0.362,0,0.656,0.294,0.656,0.656V11.136z M9.283,11.136 c0,0.361-0.294,0.655-0.656,0.655c-0.361,0-0.655-0.294-0.655-0.655V6.106c0-0.362,0.294-0.656,0.655-0.656 c0.362,0,0.656,0.294,0.656,0.656V11.136z M5.474,3.055V2.301c0-0.304,0.246-0.551,0.549-0.551h1.956 c0.303,0,0.549,0.247,0.549,0.551v0.754c0,0.013,0.007,0.022,0.007,0.036H5.467C5.467,3.077,5.474,3.067,5.474,3.055"/>
	</g>
	<g id="stats" data-size="20 14">
		<path d="M8.999,14h-1.7L5.5,4.1L3.9,9.6H0V7.8h2.6l2.2-7.8h1.8l1.8,10.099L11.099,2.2H12.7l2.198,5.7l1.4-3.8h3.699v1.8 h-2.499l-1.8,4.8h-1.7L12,5.2L8.999,14z"/>
	</g>
	<g id="filter" data-size="12.344 14">
		<path d="M12.344,3.156C12.344,1.356,9.689,0,6.172,0C2.653,0,0,1.356,0,3.156C0,3.748,0.291,4.29,0.801,4.753 l4.197,5.645V14h2.458v-3.666l4.098-5.591C12.057,4.282,12.344,3.743,12.344,3.156 M6.172,1.513c2.801,0,4.658,0.989,4.658,1.644 C10.83,3.81,8.973,4.8,6.172,4.8c-2.8,0-4.659-0.99-4.659-1.644C1.513,2.502,3.372,1.513,6.172,1.513"/>
	</g>
	<g id="collections-add" data-size="17 14">
		<path d="M3.68,20.74h7.43v1.449H3.68V20.74z M3.68,28.67h7.43v-1.449H3.68V28.67z M3.68,35.141h7.43v-1.451H3.68 V35.141z M28.28,22.189h7.431V20.74H28.28V22.189z M28.28,28.67h7.431v-1.449H28.28V28.67z M28.28,35.141h7.431v-1.451H28.28V35.141 z M13.49,28.67h12.83v-1.449H13.49V28.67z M13.49,35.141h12.83v-1.451H13.49V35.141z M38.609,15.45 c0.775,0.011,1.396,0.645,1.391,1.42v21.71c0.005,0.779-0.621,1.414-1.4,1.42H1.4c-0.779-0.006-1.406-0.641-1.4-1.42V16.87 c-0.005-0.779,0.621-1.414,1.4-1.42h6.39v-14C7.785,0.655,8.425,0.006,9.22,0h20.76c0.795,0.006,1.436,0.655,1.43,1.45v14H38.609  M9.22,16.55h5.9l0.23,0.35l0.72,1.1l0.34,0.52l0.39,0.6l1,1.45l0.11,0.17l1,1.449l0.62,0.941l0.62-0.941l1-1.449l0.11-0.17l1-1.45 l0.39-0.6L22.99,18l0.721-1.1l0.229-0.35h6.08v-1.77V1.48H9.22 M38.67,38.539V16.9h-7.199c-0.179,0.644-0.761,1.093-1.431,1.1 h-5.229l-0.74,1.12l-1,1.45l-0.109,0.17h3.399v1.449h-4.35l-1.76,2.68c-0.056,0.086-0.129,0.16-0.214,0.213 c-0.325,0.209-0.759,0.113-0.967-0.213l-1.76-2.68h-3.78V20.74h2.83l-0.11-0.17l-1-1.45L14.51,18H9.28 c-0.669-0.007-1.252-0.456-1.43-1.1H1.43v21.639h37.15H38.67z M14.66,8.5c-0.392,0-0.71,0.318-0.71,0.71s0.318,0.71,0.71,0.71h9.92 c0.393,0,0.71-0.318,0.71-0.71S24.973,8.5,24.58,8.5H14.66 M20.331,4.25c0-0.392-0.318-0.71-0.711-0.71 c-0.392,0-0.709,0.318-0.709,0.71v9.92c0,0.392,0.318,0.71,0.709,0.71c0.393,0,0.711-0.318,0.711-0.71V4.25"/>
	</g>
	<g id="lock" data-size="12.46 14">
		<path d="M10.148,4.96H9.635V3.462C9.635,1.554,8.082,0,6.174,0c-1.91,0-3.463,1.554-3.463,3.462V4.96H2.317 C1.039,4.96,0,6,0,7.277v4.405C0,12.96,1.039,14,2.317,14h7.832c1.277,0,2.316-1.04,2.316-2.317V7.277 C12.465,6,11.426,4.96,10.148,4.96 M6.699,9.859v1.009c0,0.256-0.21,0.466-0.466,0.466c-0.257,0-0.467-0.21-0.467-0.466V9.859 C5.355,9.68,5.067,9.271,5.067,8.792c0-0.644,0.521-1.166,1.166-1.166s1.166,0.522,1.166,1.166C7.399,9.271,7.111,9.68,6.699,9.859  M7.867,4.96H4.479V3.462c0-0.934,0.761-1.693,1.695-1.693c0.934,0,1.693,0.76,1.693,1.693V4.96z"/>
	</g>
	<g id="cart" data-size="15.369 14">
		<path d="M13.273,7.712H2.096c-0.489,0-0.768,0.419-0.699,0.838l0.979,4.332C2.515,13.51,3.074,14,3.772,14 h7.755c0.697,0,1.256-0.49,1.396-1.118l0.979-4.332C14.043,8.131,13.693,7.712,13.273,7.712z M6.986,11.205 c0,0.348-0.279,0.699-0.698,0.699c-0.419,0-0.699-0.352-0.699-0.699V9.809c0-0.352,0.279-0.7,0.699-0.7 c0.419,0,0.698,0.349,0.698,0.7V11.205z M9.781,11.205c0,0.348-0.279,0.699-0.699,0.699s-0.697-0.352-0.697-0.699V9.809 c0-0.352,0.277-0.7,0.697-0.7s0.699,0.349,0.699,0.7V11.205z M13.973,4.218h-1.537l-1.328-3.354 C10.828,0.166,9.99-0.183,9.291,0.097C8.592,0.376,8.244,1.214,8.523,1.913l0.908,2.305H5.938l0.908-2.305 c0.279-0.699-0.07-1.537-0.769-1.816c-0.698-0.28-1.537,0.069-1.816,0.768L2.934,4.218H1.397C0.628,4.218,0,4.847,0,5.616v0.698 c0,0.419,0.279,0.699,0.698,0.699h13.974c0.418,0,0.697-0.279,0.697-0.699V5.616C15.369,4.847,14.74,4.218,13.973,4.218z"/>
	</g>
	<g id="winner" data-size="11.156 14">
		<path d="M9.778,0.003h-8.4C0.621,0.003,0,0.632,0,1.397v11.197c0,0.766,0.621,1.395,1.378,1.395 c0.692,0.128,2.01-1.496,3.795-3.905c0.323-0.432,0.596-0.257,0.779-0.005c1.983,2.724,3.407,3.997,3.826,3.91 c0.757,0,1.378-0.626,1.378-1.395V1.397C11.156,0.632,10.535,0.003,9.778,0.003z M4.233,2.207l0.629-0.09 c0.087-0.014,0.161-0.065,0.2-0.145l0.281-0.569c0.099-0.197,0.377-0.197,0.476,0l0.279,0.566C6.136,2.048,6.21,2.1,6.297,2.114 l0.629,0.09c0.219,0.033,0.304,0.298,0.148,0.451L6.617,3.101c-0.063,0.061-0.09,0.148-0.076,0.235l0.106,0.626 c0.038,0.216-0.191,0.383-0.386,0.279L5.701,3.946c-0.077-0.041-0.169-0.041-0.246,0L4.895,4.241C4.7,4.342,4.474,4.178,4.509,3.962 l0.107-0.626c0.014-0.085-0.014-0.175-0.077-0.235L4.085,2.658C3.927,2.505,4.014,2.237,4.233,2.207z M9.611,7.323 c0,0.218-0.181,0.399-0.399,0.399H1.944c-0.219,0-0.399-0.181-0.399-0.399V7.197c0-0.219,0.181-0.399,0.399-0.399h7.268 c0.219,0,0.399,0.18,0.399,0.399V7.323z M9.611,5.501c0,0.219-0.181,0.399-0.399,0.399H1.944c-0.219,0-0.399-0.181-0.399-0.399 V5.376c0-0.219,0.181-0.399,0.399-0.399h7.268c0.219,0,0.399,0.181,0.399,0.399V5.501z"/>
	</g>
	<g id="directory" data-size="14.563 14">
		<path d="M3,6.427h0.889v1.636H3V6.427z M3,9.699h0.889v1.636H3V9.699z M3,3.155h0.889v1.636H3V3.155z M5.727,9.699 h0.889v1.636H5.727V9.699z M5.727,6.427h0.889v1.636H5.727V6.427z M5.727,3.155h0.889v1.636H5.727V3.155z M10.808,8.313h1.739v0.89 h-1.739V8.313z M10.808,10.494h1.739v0.889h-1.739V10.494z M9.615,14h3.188c0.97,0,1.76-0.79,1.76-1.76V5.738L9.615,5.737V0H0v14 h8.727H9.615L9.615,14z M13.674,6.627v5.613c0,0.48-0.392,0.871-0.871,0.871H9.615V6.626L13.674,6.627z M0.889,13.111V0.889h7.838 v4.849v7.374H0.889L0.889,13.111z"/>
	</g>
	<g id="edit" data-size="13.563 14">
		<path d="M5.603,8.352l-0.032,1.62l1.564-0.423l5.786-7.406l-1.532-1.197L5.603,8.352z M12.897,0.068 c-0.261-0.204-0.909,0.112-0.909,0.112l-0.4,0.511l1.532,1.197l0.399-0.511c0,0,0.15-0.705-0.111-0.91L12.897,0.068z M0,14h12.103 V4.446l-1.274,1.605v6.675H1.274V3.172H8.6l0.955-1.274H0V14z"/>
	</g>
	<g id="pencil" data-size="14 14">
		<path d="M4.44 12.832l7.482-7.48L8.648 2.08l-7.48 7.48 3.272 3.272zm-.47.467L0 14l.7-3.973L3.97 13.3zm8.42-8.416l1.4-1.403c.47-.467 0-.937 0-.937L11.458.208s-.47-.47-.938 0L9.115 1.61l3.273 3.274z"/>
	</g>
	<g id="eye" data-size="18.666 14">
		<path d="M9.334,0C4.179,0,0,6.909,0,6.909S4.179,14,9.334,14c5.154,0,9.332-7.091,9.332-7.091 S14.488,0,9.334,0z M9.334,11.667c-2.578,0-4.667-2.09-4.667-4.667s2.09-4.667,4.667-4.667C11.91,2.333,14,4.423,14,7 S11.91,11.667,9.334,11.667z M9.334,4.676c1.287,0,2.332,1.045,2.332,2.334c0,1.288-1.045,2.333-2.332,2.333 C8.045,9.343,7,8.298,7,7.01C7,5.721,8.045,4.676,9.334,4.676z"/>
	</g>
	<g id="collections" data-size="17.127 14">
		<path d="M0.307,4.48l7.544,3.644c0.196,0.093,0.459,0.143,0.717,0.143s0.521-0.05,0.719-0.143L16.83,4.48
	c0.396-0.191,0.396-0.503,0-0.695L9.287,0.143C9.09,0.049,8.826,0,8.568,0S8.047,0.049,7.851,0.143L0.307,3.785
	C-0.09,3.978-0.09,4.289,0.307,4.48z M16.83,6.652c0,0-1.377-0.664-1.561-0.754c-0.182-0.089-0.232-0.084-0.424,0.005
	S9.281,8.587,9.281,8.587C9.082,8.681,8.822,8.729,8.564,8.729c-0.26,0-0.521-0.049-0.718-0.143c0,0-5.229-2.523-5.476-2.644
	C2.104,5.814,2.028,5.814,1.787,5.93C1.538,6.051,0.297,6.647,0.297,6.647c-0.396,0.192-0.396,0.504,0,0.696l7.544,3.643
	c0.196,0.094,0.459,0.143,0.719,0.143c0.258,0,0.521-0.049,0.717-0.143l7.545-3.643C17.227,7.156,17.227,6.844,16.83,6.652z
	 M16.83,9.52c0,0-1.377-0.665-1.561-0.754c-0.182-0.089-0.232-0.085-0.424,0.005c-0.191,0.089-5.559,2.688-5.559,2.688
	c-0.201,0.093-0.461,0.143-0.719,0.143s-0.521-0.05-0.717-0.143c0,0-5.23-2.524-5.476-2.645C2.108,8.686,2.032,8.686,1.792,8.802
	C1.542,8.922,0.302,9.52,0.302,9.52c-0.396,0.191-0.396,0.503,0,0.695l7.544,3.643C8.043,13.955,8.305,14,8.564,14
	c0.258,0,0.521-0.049,0.717-0.143l7.545-3.643C17.227,10.022,17.227,9.711,16.83,9.52z"/>
	</g>
	<g id="bookmark" data-size="10 14">
		<path d="M0,0h10v14l-5-3l-5,3V0z" vector-effect="non-scaling-stroke" />
	</g>
	<g id="report" data-size="11.102 14">
		<path d="M2.282,2.868h6.414v0.369H2.282V2.868z M2.282,4.225h6.414v0.37H2.282V4.225z M2.282,5.705h6.414
	v0.37H2.282V5.705z M2.282,7.062h6.414v0.37H2.282V7.062z M2.282,8.542h6.414v0.37H2.282V8.542z M9.991,0H1.11
	C0.498,0,0,0.498,0,1.11V12.89C0,13.502,0.498,14,1.11,14h7.154c1.564,0,2.837-1.272,2.837-2.837V1.11
	C11.102,0.498,10.604,0,9.991,0z M0.74,12.89V1.11c0-0.204,0.166-0.37,0.37-0.37h8.881c0.204,0,0.37,0.166,0.37,0.37v9.528H7.586
	v2.621H1.11C0.906,13.26,0.74,13.094,0.74,12.89z M8.326,13.257v-1.878h2.024C10.244,12.414,9.381,13.226,8.326,13.257z" />
	</g>
	<g id="check-ok" data-size="14 14">
		<path d="M4.13,5.67L3.15,6.65L6.3,9.8l7-7l-0.98-0.979L6.3,7.84L4.13,5.67L4.13,5.67z M12.6,7
	c0,3.08-2.52,5.6-5.6,5.6S1.4,10.08,1.4,7S3.92,1.4,7,1.4c0.56,0,1.05,0.07,1.54,0.21l1.12-1.12C8.819,0.21,7.91,0,7,0
	C3.15,0,0,3.15,0,7c0,3.85,3.15,7,7,7c3.85,0,7-3.15,7-7H12.6L12.6,7z" />
	</g>
	<g id="window" data-size="17.684 14">
		<path d="M15.842,14h-14C0.827,14,0,13.174,0,12.158V1.842C0,0.827,0.827,0,1.842,0h14
	c1.016,0,1.842,0.827,1.842,1.842v10.316C17.684,13.174,16.857,14,15.842,14z M1.842,0.737c-0.609,0-1.105,0.496-1.105,1.105v10.316
	c0,0.609,0.496,1.104,1.105,1.104h14c0.609,0,1.105-0.495,1.105-1.104V1.842c0-0.609-0.496-1.105-1.105-1.105H1.842z M17.316,4.421
	H0.369C0.165,4.421,0,4.256,0,4.053c0-0.204,0.165-0.369,0.369-0.369h16.948c0.203,0,0.367,0.165,0.367,0.369
	C17.684,4.256,17.52,4.421,17.316,4.421z M2.948,1.474c0.407,0,0.737,0.33,0.737,0.737c0,0.407-0.33,0.737-0.737,0.737
	c-0.407,0-0.737-0.33-0.737-0.737C2.211,1.804,2.541,1.474,2.948,1.474z M5.158,1.474c0.407,0,0.737,0.33,0.737,0.737
	c0,0.407-0.33,0.737-0.737,0.737c-0.407,0-0.737-0.33-0.737-0.737C4.421,1.804,4.751,1.474,5.158,1.474z M7.369,1.474
	c0.407,0,0.737,0.33,0.737,0.737c0,0.407-0.33,0.737-0.737,0.737S6.632,2.618,6.632,2.21C6.632,1.804,6.962,1.474,7.369,1.474z" />
	</g>
	<g id="marker" data-size="10.229 14">
		<path d="M7.575,5.091c0,1.405-1.145,2.546-2.557,2.546c-1.413,0-2.557-1.141-2.557-2.546
	c0-1.406,1.145-2.545,2.557-2.545C6.431,2.545,7.575,3.685,7.575,5.091 M10.229,5.091C10.229,2.279,7.938,0,5.114,0S0,2.279,0,5.091
	c0,1.236,0.443,2.37,1.18,3.252L5.119,14l3.997-5.74c0.144-0.179,0.275-0.367,0.394-0.565L9.55,7.637H9.543
	C9.979,6.887,10.229,6.019,10.229,5.091" />
	</g>
</svg>